<?xml version="1.0" encoding="UTF-8"?>
<!DOCTYPE svg PUBLIC "-//W3C//DTD SVG 1.1//EN" "http://www.w3.org/Graphics/SVG/1.1/DTD/svg11.dtd">
<!-- Creator: CorelDRAW -->
<svg xmlns="http://www.w3.org/2000/svg" xml:space="preserve" width="11.1111in" height="11.1111in" version="1.1" style="shape-rendering:geometricPrecision; text-rendering:geometricPrecision; image-rendering:optimizeQuality; fill-rule:evenodd; clip-rule:evenodd"
viewBox="0 0 11111 11111"
 xmlns:xlink="http://www.w3.org/1999/xlink">
 <defs>
  <style type="text/css">
   <![CDATA[
    .fil6 {fill:#008B78}
    .fil5 {fill:#00AB94}
    .fil18 {fill:#1583CF}
    .fil17 {fill:#1AA1FF}
    .fil4 {fill:#2D2D2D}
    .fil12 {fill:#333333}
    .fil19 {fill:#7DD63E}
    .fil15 {fill:#AD5600}
    .fil16 {fill:#C06000}
    .fil1 {fill:#C5C5EB}
    .fil14 {fill:#C7553A}
    .fil0 {fill:#D6D6FF}
    .fil8 {fill:#EDEDED}
    .fil9 {fill:#FF961E}
    .fil7 {fill:#FFA721}
    .fil2 {fill:#FFB762}
    .fil3 {fill:#FFC06D}
    .fil10 {fill:white}
    .fil11 {fill:#2D2D2D;fill-rule:nonzero}
    .fil13 {fill:#333333;fill-rule:nonzero}
   ]]>
  </style>
 </defs>
 <g id="_544431440">
  <circle class="fil0" cx="5556" cy="5556" r="5556"/>
  <path class="fil1" d="M10430 4561c0,3069 -2487,5556 -5556,5556 -1687,0 -3199,-752 -4218,-1940 936,1746 2779,2934 4900,2934 3068,0 5555,-2487 5555,-5555 0,-1381 -503,-2644 -1337,-3616 419,781 656,1674 656,2621z"/>
 </g>
 <g id="Layer_x0020_1">
  <metadata id="CorelCorpID_0Corel-Layer"/>
  <path class="fil2" d="M6500 7292c-22,0 -43,-5 -63,-17 -60,-35 -80,-111 -45,-171l241 -411c30,-51 920,-30 936,-3l242 414c35,60 15,136 -44,171 -20,12 -42,17 -63,17 -339,0 -810,0 -1204,0z"/>
  <g id="_546106032">
   <path class="fil2" d="M4735 4568c16,26 5,2 33,2 14,0 29,-3 42,-11 40,-23 53,-74 30,-113l-207 -352c-23,-40 -73,-53 -113,-30 -39,24 -53,74 -29,114 -85,35 -139,77 -237,77 -96,0 -187,25 -271,-9l39 -66c23,-39 10,-90 -29,-113 -40,-23 -91,-10 -114,29l-205 349c-23,40 -10,91 30,114 13,8 28,11 42,11 28,0 65,21 81,-5l43 -74 397 228 468 -151z"/>
   <path class="fil3" d="M4254 4299c395,0 715,-321 715,-715l0 -234c0,-46 -37,-175 -82,-175 -46,0 -83,37 -83,83l0 1 0 0 0 -1c-4,-254 -319,-440 -600,-448 -140,-4 -469,32 -500,452l0 -3c0,-45 -37,-83 -82,-83 -46,0 -83,130 -83,175l0 233c0,394 321,715 715,715zm274 -239c-4,3 -8,5 -13,7 2,-1 3,-2 5,-3 3,-1 5,-2 8,-4zm-532 9c-4,-2 -8,-4 -12,-6 3,1 6,2 9,4 1,1 2,1 3,2z"/>
   <path class="fil4" d="M3622 3434l0 0 0 0 2 0 0 0 0 0 2 0 0 0 0 0 2 0 0 0 0 0 2 0 0 0 1 0 1 0 1 -1 1 0 0 0 0 0 1 0 1 0 0 0 1 0 0 0 1 0 1 -1 1 0 0 0 1 0 0 0 0 0 1 0 1 -1 0 0 1 0 0 0 1 0 1 0 0 0 1 -1 0 0 0 0 0 0 1 0 1 0 0 0 1 -1 0 0 0 0 1 0 1 -1 1 0 0 0 1 0 1 -1 0 0 0 0 2 -1 0 0 1 0 1 -1 1 0 0 0 0 0 2 -1 0 0c2,-1 3,-2 5,-3l0 0c1,-1 2,-2 3,-3l0 0 2 -1 0 0 1 -1c9,-7 16,-15 21,-25l0 0 1 0 0 -1c4,-7 7,-15 8,-23l0 -1 0 -1 1 -1 0 -1c0,-2 0,-4 0,-6 30,-423 360,-459 500,-455 281,8 597,194 600,449 0,15 4,30 12,42l1 1 0 1c4,6 9,11 14,16l0 0 2 2 0 0 1 1 1 0 0 1 2 1 0 0c5,4 9,6 14,9l0 0c1,0 2,0 2,1l1 0 1 0 1 1 1 0 1 0 1 1 1 0 0 0 2 1 0 0c11,3 21,4 32,3l0 0 2 0 0 0 1 0 2 0 0 0c7,-1 13,-3 19,-6 0,0 1,0 2,0l0 0c14,-6 26,-16 35,-30 198,-295 194,-573 -10,-784 -67,-68 -95,-130 -122,-189 -25,-56 -51,-113 -104,-168 -184,-188 -452,-140 -637,-87 -35,9 -81,14 -130,18 -97,9 -208,20 -288,81 -157,120 -258,293 -286,486 -29,211 31,434 174,644 2,2 4,4 5,6l0 1 1 0 0 1 1 1 0 0 0 0c6,6 13,12 20,16l0 0 2 1 0 1 1 0c8,4 17,8 26,9l1 0 1 0 1 1 1 0c1,0 1,0 2,0l0 0c1,0 1,0 2,0l0 0 0 0 0 0 0 0 0 0c1,0 2,0 3,0l0 0 0 0 0 0 1 0 0 0 0 0 0 0 0 0 0 0 0 0 0 0 0 0 0 0 0 0 1 0 0 0 0 0 0 0 0 0 0 0 0 0 0 0 0 0 0 0 0 0 1 0 0 0 0 0z"/>
   <path class="fil5" d="M5087 4414l-86 320c-5,22 -19,40 -38,51l-411 237c-14,7 -28,11 -42,11 -84,0 -115,-112 -41,-154l47 -28 -206 -151c-16,-12 -34,-17 -53,-17l472 -268 -472 268 0 0c-16,1 -31,6 -45,16l-212 152 47 29c39,23 51,74 28,113 -24,40 -76,52 -114,28l-389 -237c-18,-12 -31,-29 -36,-50 -11,-38 -84,-308 -86,-323 35,-4 74,-6 113,-6l-2 0c-544,0 -986,442 -986,985l0 606c0,46 37,83 83,83l3198 0c46,0 83,-37 83,-83l0 -606c0,-498 -372,-911 -852,-976z"/>
   <g>
    <path class="fil6" d="M3105 6079l121 0 0 -471c0,-33 -27,-60 -61,-60l0 0c-33,0 -60,27 -60,60l0 471z"/>
    <path class="fil6" d="M5288 6079l121 0 0 -471c0,-33 -27,-60 -60,-60l0 0c-34,0 -61,27 -61,60l0 471z"/>
   </g>
   <path class="fil7" d="M3924 6079l667 0 -91 -891c-4,-42 -40,-74 -82,-74l-322 0c-42,0 -77,32 -82,74l-90 891z"/>
   <path class="fil8" d="M5087 4414c-95,-13 -220,-9 -319,-9 -14,0 -27,3 -39,10l-472 268 -471 -268c-25,-14 -57,-10 -88,-10 -79,0 -170,-3 -248,6 2,15 75,285 86,323 5,21 18,38 36,50l389 237c38,24 90,12 114,-28 23,-39 11,-90 -28,-113l-47 -29 212 -152c29,-21 69,-21 98,1l206 151 -47 28c-74,42 -43,154 41,154 14,0 28,-4 42,-11l411 -237c19,-11 33,-29 38,-51l86 -320z"/>
   <path class="fil9" d="M4096 5280l322 0c7,0 13,-1 19,-2l73 0 -8 -70 86 -229c13,-34 1,-73 -29,-95l-249 -184c-29,-22 -69,-22 -98,-1l-256 184c-31,22 -43,61 -30,96l86 229 -7 70 72 0c6,1 12,2 19,2z"/>
   <g>
    <g>
     <g>
      <g>
       <circle class="fil4" cx="4539" cy="3539" r="100"/>
       <path class="fil10" d="M4539 3438c-55,0 -100,45 -100,101 0,1 0,2 0,3 3,0 7,0 10,0 56,0 101,-45 101,-100 0,-1 0,-2 0,-3 -4,0 -7,-1 -11,-1z"/>
      </g>
      <path class="fil11" d="M4694 3376c13,9 16,26 7,39 -9,12 -26,15 -39,6 0,0 -101,-74 -250,2 -13,7 -30,2 -37,-12 -7,-13 -1,-30 12,-37 179,-92 307,2 307,2z"/>
     </g>
     <g>
      <g>
       <circle class="fil12" cx="3969" cy="3539" r="100"/>
       <path class="fil10" d="M3969 3438c-55,0 -100,45 -100,101 0,1 0,2 0,3 4,0 7,0 11,0 55,0 100,-45 100,-100 0,-1 0,-2 0,-3 -4,0 -7,-1 -11,-1z"/>
      </g>
      <path class="fil13" d="M4124 3376c13,9 16,26 7,39 -9,12 -26,15 -38,6 -1,0 -102,-74 -250,2 -14,7 -31,2 -38,-12 -7,-13 -1,-30 12,-37 179,-92 307,2 307,2z"/>
     </g>
    </g>
    <ellipse class="fil14" cx="4254" cy="3920" rx="47" ry="66"/>
   </g>
  </g>
  <path class="fil15" d="M5649 7503l-3205 0c-69,0 -125,-56 -125,-125l0 -980c0,-69 56,-125 125,-125l3626 0c69,0 125,56 125,125l0 791c0,69 -56,125 -125,125 -57,0 -105,-38 -120,-90l-189 99c8,16 13,35 13,55 0,69 -56,125 -125,125z"/>
  <path class="fil16" d="M6415 6522l-4288 0c-69,0 -125,-55 -125,-124l0 -442c0,-69 56,-125 125,-125l4227 0c168,0 313,691 61,691z"/>
  <path class="fil3" d="M7098 6973c-479,0 -869,-390 -869,-869l0 -274c0,-69 56,-125 125,-125 69,0 125,-148 125,-79l0 4c34,-470 403,-510 560,-506 318,9 675,217 679,500l0 0 0 0 0 0 0 0 0 0 0 0 0 0 0 0 0 0 0 0 0 0 0 0 0 0 0 0 0 0 0 1 0 0 0 0 0 0 0 0 0 0 0 0 0 0 0 0 0 0 0 0 0 0 0 0 0 0 0 0 0 0 0 0 0 0 0 0 0 0 0 1 0 0 0 0 0 0 0 0 0 0 0 0 0 0 0 0 0 0 0 0 0 0 0 -2c0,-69 56,79 125,79 69,0 125,56 125,125l0 276c0,479 -390,869 -870,869zm-305 -330c5,3 11,5 16,8l0 0 0 0 0 0 0 0 0 0 -1 0 0 0 0 0 0 0 0 0 0 0 0 0 0 0 0 0 0 0 0 0 0 0 0 0 0 0 0 0 0 0 0 0 0 0 0 0 0 0 0 0 0 0 0 -1 0 0 -1 0 0 0 0 0 0 0 0 0 0 0 0 0 0 0 0 0 0 0 0 0 0 0 0 0 0 0 0 0 0 0 0 0 0 0 0 0 0 0 0 0 0 0 0 0 0 0 0 0 -1 0 0 0 0 0 0 0 0 0 0 0 0 0 0 0 0 0 0 0 0 0 0 0 0 0 0 0 0 0 0 -1 0 0 0 0 0 0 0 0 0 0 0 0 0 0 0 0 0 0 0 0 0 0 0 0 -1 0 0 0 0 0 0 0 0 0 0 0 0 0 0 0 0 0 0 0 0 0 0 0 0 0 0 0 0 0 0 0 0 0 0 0 0 0 0 0 0 0 0 0 0 0 0 0 0 0 -1 0 0 0 0 0 0 0 0 0 0 0 0 -1 0 0 0 0 0 0 0 0 0 0 0 0 0 0 -1 0 0 0 0 0 0 0 0 0 0 0 0 0 0 0 0 0 0 0 0 0 -1 -1 0 0 0 0 0 0 0 0 0 0 0 0 0 0 0 0 0 0 0 0 0 0 -1 0 0 0 0 0 0 0 0 0 0 0 0 0 0 0 0 -1 0 0 0 0 -1 0 0 0 0 0 0 0 0 0 0 0 0 0 0 0 0 0 0 0 0 0 -1 0 0 0 0 0 0 0 0 0 0 0 0 0 0 0 0 -1 0 0 0 0 0 0 -1 0 0 0 0 0 0 0 0 0 0 0 0 0 0 0 0 0 0 0 -1 0 0 0 0 0 0 0 0 0 0 0 0 0 0 -1 0 0 0 0 0 0 0 0 -1 0 0 0 0 0 0 0 0 0 0 0 0 0 0 0 0 0 0 0 0 0 -1 0 0 0 0 0 0 0 0 0 0 0 0 0 0 -1 0 0 0 0 0 0 -1 0 0 0 0 0 0 0 0 0 0 0 0 0 0 0 0 0 0 0 0 0 -1 0 0 0 0 0 0 0 0 0 0 0zm599 6c5,-3 11,-6 16,-9l0 0 0 0 0 0 0 0 0 0 0 0 -1 0 0 0 0 1 0 0 0 0 0 0 0 0 0 0 0 0 0 0 0 0 0 0 -1 0 0 0 0 0 0 0 0 0 0 0 0 0 0 0 0 0 0 0 0 0 0 0 -1 0 0 0 0 0 0 0 0 1 0 0 0 0 0 0 0 0 0 0 0 0 0 0 -1 0 0 0 0 0 0 0 0 0 0 0 0 0 0 0 0 0 0 0 0 0 0 0 -1 0 0 0 0 0 0 1 0 0 0 0 0 0 0 0 0 0 0 0 0 0 0 0 -1 0 0 0 0 0 0 0 0 0 0 0 0 0 0 0 0 0 0 0 0 0 0 0 0 0 -1 0 0 1 0 0 0 0 0 0 0 0 0 0 0 0 0 0 0 0 0 0 0 0 -1 0 0 0 0 0 0 0 0 0 0 0 0 0 0 0 0 0 0 0 0 1 -1 0 0 0 0 0 0 0 0 0 0 0 0 0 0 0 0 0 0 0 0 0 0 0 -1 0 0 0 0 0 0 0 0 0 0 0 0 0 0 0 0 1 0 0 0 0 0 0 0 0 -1 0 0 0 0 0 0 0 0 0 0 0 0 0 0 0 0 0 0 0 0 0 0 0 0 0 0 0 0 0 0 0 0 0 0 0 0 0 0 0 0 0 -1 0 0 0 0 0 0 0 0 0 0 0 0 0 0 0 0 1 0 0 0 0 0 0 0 0 0 0 0 0 0 0 0 0 0 0 0 0 0 0 0 0 0 0 -1 0 0 0 0 0 0 0 0 0 0 0 0 0 0 0 0 0 0 0 0 0 0 0 0 0 0 0 0 0 0 0 0 0 0 0 0 0 0 0 0 0 -1 1 0 0 0 0 0 0 0 0 0 0 0 0 0 0 0 0 0 0 0 0 0 0 0 0 0 0 0 0 0 0 0 0 0 0 0 0 -1 0 0 0 0 0 0 0 -1 1 0 0 0 0 0 0 0 0 0 0 0 0 0 0z"/>
  <path class="fil4" d="M6354 5955c-6,0 -12,-1 -18,-1l0 0 -1 -1 -2 0 -1 0 0 0c-2,0 -3,-1 -4,-1l0 0c-8,-2 -16,-4 -23,-7l-2 -1 -1 0 -1 -1 -1 0 -2 -1 -1 -1c-16,-8 -31,-20 -43,-36l0 0 -1 -2 -1 -1 0 0 -1 -1 0 -1 -1 0c-173,-254 -246,-523 -210,-779 33,-234 157,-444 347,-590 101,-77 235,-89 353,-100 57,-5 110,-10 148,-21 225,-64 550,-122 777,111 66,67 97,137 128,204 33,71 63,138 138,216 251,257 256,597 16,957l-1 1 0 0c-12,17 -28,31 -45,40l0 0c-1,0 -2,1 -3,1l0 0c-14,7 -29,11 -46,13l0 0 -2 0 -1 0 -2 0 -2 0 -1 0c0,0 -1,0 -1,0 -3,0 -6,0 -9,0l0 0c-64,-5 -115,-58 -116,-124 -3,-284 -361,-492 -679,-501 -158,-4 -528,36 -561,510 0,3 0,6 -1,9l0 2 0 1 0 3 0 0c-3,14 -8,27 -15,39l0 0 0 0c0,1 -1,2 -1,3l0 0 -2 2c-6,10 -13,18 -22,26 -1,1 -2,2 -2,2l0 0c-1,1 -2,1 -3,2l0 0 0 0c-7,6 -14,11 -22,15l-1 0 0 0 -1 1 -2 0 -1 1 0 0 -2 1 0 0 -1 0 -1 1 -1 0 -2 1 -1 0 -2 1 0 0 0 0 -3 1 0 0 0 0 -3 1 0 0 0 0c-2,0 -4,1 -5,1l0 0c-2,1 -4,1 -6,2l0 0c-8,1 -16,2 -24,2z"/>
  <path class="fil17" d="M8984 9068l-3764 0c-69,0 -125,-55 -125,-124l0 -714c0,-655 532,-1188 1187,-1188l218 0c11,0 23,2 33,5 38,10 74,20 107,30 235,66 354,99 456,99 95,0 199,-28 405,-84 51,-14 107,-29 171,-46 10,-2 21,-4 32,-4l217 0c655,0 1188,533 1188,1188l0 714c0,69 -56,124 -125,124z"/>
  <g id="_546104472">
   <path class="fil18" d="M6077 9068l-250 0 0 -624c0,-69 56,-125 125,-125 69,0 125,56 125,125l0 624z"/>
   <path class="fil18" d="M8377 9068l-250 0 0 -624c0,-69 56,-125 125,-125 69,0 125,56 125,125l0 624z"/>
  </g>
  <path class="fil19" d="M6124 4127c-24,0 -48,-7 -69,-21 -34,-23 -55,-62 -55,-104l0 -354 -246 0c-69,0 -125,-56 -125,-125l0 -1355c0,-69 56,-125 125,-125l2646 0c69,0 125,56 125,125l0 1355c0,69 -56,125 -125,125l-1113 0 -1114 469c-16,7 -32,10 -49,10z"/>
  <g id="_546104136">
   <g>
    <path class="fil10" d="M7934 2755l-1714 0c-69,0 -125,-56 -125,-125 0,-69 56,-125 125,-125l1714 0c69,0 125,56 125,125 0,69 -56,125 -125,125z"/>
   </g>
   <g>
    <path class="fil10" d="M7934 3186l-1714 0c-69,0 -125,-56 -125,-125 0,-69 56,-125 125,-125l1714 0c69,0 125,56 125,125 0,69 -56,125 -125,125z"/>
   </g>
  </g>
 </g>
</svg>
