\<?xml version="1.0" encoding="UTF-8" standalone="no"?>
<!-- Created with Inkscape (http://www.inkscape.org/) -->

<svg
   version="1.1"
   id="svg6238"
   width="800"
   height="800"
   viewBox="0 0 800 800"
   sodipodi:docname="wooden-gate-publicdomainvectors.org.svg"
   inkscape:version="1.2 (dc2aedaf03, 2022-05-15)"
   xmlns:inkscape="http://www.inkscape.org/namespaces/inkscape"
   xmlns:sodipodi="http://sodipodi.sourceforge.net/DTD/sodipodi-0.dtd"
   xmlns="http://www.w3.org/2000/svg"
   xmlns:svg="http://www.w3.org/2000/svg">
  <defs
     id="defs6242">
    <clipPath
       clipPathUnits="userSpaceOnUse"
       id="clipPath6254">
      <path
         d="M 0,600 H 600 V 0 H 0 Z"
         id="path6252" />
    </clipPath>
  </defs>
  <sodipodi:namedview
     id="namedview6240"
     pagecolor="#ffffff"
     bordercolor="#000000"
     borderopacity="0.25"
     inkscape:showpageshadow="2"
     inkscape:pageopacity="0.0"
     inkscape:pagecheckerboard="0"
     inkscape:deskcolor="#d1d1d1"
     showgrid="false"
     inkscape:zoom="1.04625"
     inkscape:cx="399.5221"
     inkscape:cy="400.4779"
     inkscape:window-width="1920"
     inkscape:window-height="1017"
     inkscape:window-x="-8"
     inkscape:window-y="-8"
     inkscape:window-maximized="1"
     inkscape:current-layer="g6246">
    <inkscape:page
       x="0"
       y="0"
       id="page6244"
       width="800"
       height="800" />
  </sodipodi:namedview>
  <g
     id="g6246"
     inkscape:groupmode="layer"
     inkscape:label="Page 1"
     transform="matrix(1.3333333,0,0,-1.3333333,0,800)">
    <g
       id="g6248">
      <g
         id="g6250"
         clip-path="url(#clipPath6254)">
        <g
           id="g6256"
           transform="translate(63.1997,171.9395)">
          <path
             d="m 0,0 h 474.493 c 14.9,0 27.089,-12.191 27.089,-27.092 0,-14.898 -12.189,-27.09 -27.089,-27.09 H 0 c -14.9,0 -27.091,12.192 -27.091,27.09 C -27.091,-12.191 -14.9,0 0,0"
             style="fill:#adda1a;fill-opacity:1;fill-rule:evenodd;stroke:none"
             id="path6258" />
        </g>
        <path
           d="m 43.086,400.617 h 514.719 v 67.316 H 43.086 Z"
           style="fill:#bd4c1f;fill-opacity:1;fill-rule:evenodd;stroke:none"
           id="path6260" />
        <g
           id="g6262"
           transform="translate(324.5039,400.6162)">
          <path
             d="m 0,0 h -4.123 c -4.474,11.95 -10.554,22.176 -29.155,16.482 -8.457,-2.589 -39.949,-6.688 -71.217,-8.64 -22.665,-1.415 -45.289,-1.71 -59.082,0.499 -40.63,6.508 -71.213,6.799 -92.489,5.21 -10.862,-0.811 -19.275,-2.11 -25.351,-3.318 v 3.943 c 6.148,1.194 14.476,2.448 25.063,3.238 21.493,1.605 52.378,1.313 93.383,-5.254 13.474,-2.159 35.807,-1.856 58.248,-0.455 31.013,1.936 62.089,5.953 70.324,8.473 C -11.662,27.139 -5.128,14.23 0,0 M 233.301,4.534 V 0.322 c -3.943,1.703 -8.55,3.424 -13.998,5.148 -17.099,5.411 -42.125,7.527 -67.791,7.928 C 105.301,14.119 57.084,9.28 48.945,8.076 41.689,7.003 36.881,3.932 33.57,0 h -4.968 c 3.738,5.705 9.675,10.414 19.782,11.909 8.186,1.211 56.682,6.077 103.174,5.351 26.024,-0.406 51.444,-2.565 68.911,-8.093 4.887,-1.547 9.126,-3.094 12.832,-4.633 m 0,27.684 c -10.252,0.805 -19.523,0.752 -25.696,-0.138 -18.963,-2.735 -29.724,-4.116 -40.435,-4.809 -10.662,-0.69 -21.427,-0.703 -40.376,-0.703 -12.126,0 -23.238,-0.388 -33.653,-0.751 -32.506,-1.131 -58.1,-2.023 -95.649,10.216 -47.006,15.319 -56.125,9.943 -88.269,-9.01 l -5.056,-2.98 c -9.343,-5.478 -49.819,-1.753 -93.392,2.258 -32.804,3.02 -67.345,6.2 -92.192,5.679 v -3.856 c 24.536,0.524 59.063,-2.653 91.844,-5.671 44.211,-4.069 85.279,-7.85 95.694,-1.743 l 5.07,2.98 c 30.971,18.261 39.756,23.44 85.105,8.661 38.178,-12.443 64.076,-11.541 96.966,-10.396 10.199,0.355 21.083,0.734 33.532,0.734 18.951,0 29.721,0.013 40.619,0.719 10.852,0.702 21.682,2.091 40.736,4.839 6.016,0.868 15.095,0.906 25.152,0.099 z m 0,7.115 C 180.262,49.558 158.932,49.352 115.476,48.927 106.06,48.835 95.557,48.732 82.11,48.732 71.244,48.732 62.899,48.515 56.176,48.341 36.017,47.816 30.866,47.683 1.09,55.372 -37.637,65.373 -96.549,54.503 -136.677,47.097 l -2.786,-0.514 c -38.243,-7.047 -91.56,-3.924 -141.954,-0.127 V 42.57 c 50.532,-3.803 103.994,-6.913 142.65,0.211 l 2.787,0.514 c 39.79,7.342 98.205,18.122 136.1,8.335 30.298,-7.824 35.56,-7.687 56.148,-7.152 6.457,0.168 14.47,0.376 25.842,0.376 11.892,0 23.23,0.111 33.396,0.21 43.368,0.423 64.555,0.628 117.795,-9.674 z M 40.788,67.316 h 12.349 c 15.514,-4.599 31.748,-7.259 48.147,-8.056 23.127,-1.122 46.584,1.455 68.839,7.527 0.685,0.187 1.51,0.364 2.459,0.529 h 55.895 c 1.648,-0.197 3.259,-0.416 4.824,-0.657 v -3.848 c -3.876,0.57 -8.125,1.022 -12.531,1.368 -16.7,1.315 -35.413,0.924 -45.135,-0.314 -1.899,-0.242 -3.427,-0.513 -4.497,-0.805 -22.651,-6.18 -46.517,-8.804 -70.035,-7.662 -20.725,1.005 -41.186,4.931 -60.315,11.918 m -195.49,0 h 13.877 c -5.02,-1.444 -9.687,-2.804 -14.055,-4.077 -50.268,-14.652 -61.16,-17.823 -126.537,-7.178 v 3.921 c 65.089,-10.626 75.747,-7.521 125.461,6.968 z"
             style="fill:#d45e26;fill-opacity:1;fill-rule:evenodd;stroke:none"
             id="path6264" />
        </g>
        <path
           d="m 61.452,146.953 h 64.853 V 400.617 H 61.452 Z"
           style="fill:#a33b1f;fill-opacity:1;fill-rule:evenodd;stroke:none"
           id="path6266" />
        <g
           id="g6268"
           transform="translate(126.3047,204.7891)">
          <path
             d="m 0,0 v -5.326 c -2.905,-2.77 -5.518,-5.371 -7.499,-7.746 -3.636,-4.364 -5.134,-7.942 -2.134,-10.444 3.601,-3.002 6.876,-6.871 9.633,-11.22 v -8.012 c -3.028,6.424 -7.25,12.217 -12.104,16.264 -5.297,4.418 -3.496,9.724 1.636,15.88 C -7.72,-7.307 -4.021,-3.783 0,0 m -10.549,195.827 h 3.879 c -0.007,-2.922 -0.008,-6.078 -0.008,-9.498 0,-8.983 0.756,-16.638 1.425,-23.426 0.546,-5.542 1.038,-10.521 1.038,-15.111 0,-6.722 -1.191,-13.16 -2.309,-19.206 -2.195,-11.864 -4.092,-22.118 4.788,-29.222 C -0.044,98.01 -0.53,98.403 0,97.982 v -4.949 l -1.183,0.944 c -0.535,0.427 1.417,-1.131 -2.962,2.372 -10.691,8.554 -8.601,19.857 -6.181,32.935 1.081,5.845 2.233,12.072 2.233,18.508 0,4.518 -0.478,9.353 -1.008,14.733 -0.684,6.932 -1.455,14.75 -1.455,23.804 0,3.413 10e-4,6.568 0.007,9.498 m -11.105,0 c -0.328,-4.601 -0.795,-7.724 -1.223,-10.576 -1.182,-7.889 -2.064,-13.782 0.914,-41.275 2.038,-18.825 -5.7,-23.836 -10.524,-26.958 -1.599,-1.035 -2.931,-1.897 -3.809,-3.067 -3.14,-4.181 0.661,-9 22.885,-25.684 10.577,-7.941 3.328,-40.089 -3.867,-72.003 -6.577,-29.17 -13.112,-58.155 -5.929,-70.364 0.098,-0.166 0.449,-0.869 0.944,-1.863 0.272,-0.545 0.587,-1.176 0.94,-1.873 h 4.352 c -0.727,1.406 -1.345,2.645 -1.823,3.602 -0.486,0.974 -0.83,1.664 -1.08,2.089 -6.408,10.893 -0.041,39.133 6.368,67.559 7.469,33.129 14.992,66.5 2.413,75.943 -19.677,14.772 -23.47,18.47 -22.113,20.276 0.458,0.611 1.534,1.307 2.824,2.142 5.591,3.62 14.561,9.427 12.267,30.609 -2.923,26.991 -2.071,32.685 -0.929,40.306 0.448,2.991 0.939,6.273 1.277,11.137 z m -21.122,0 c 0.591,-2.339 1.284,-4.677 2.101,-7.016 11.628,-33.274 4.984,-42.191 -1.566,-50.983 -6.784,-9.106 -13.478,-18.092 -3.368,-48.506 1.598,-4.806 4.661,-8.486 7.866,-12.334 8.505,-10.213 18.097,-21.732 -1.998,-59.877 -7.248,-13.757 -5.293,-37.904 -3.547,-59.484 0.438,-5.404 0.861,-10.637 1.131,-15.463 h 3.864 c -0.257,4.961 -0.687,10.281 -1.132,15.766 -1.704,21.06 -3.612,44.625 3.108,57.381 21.297,40.421 10.828,52.998 1.544,64.146 -2.967,3.564 -5.803,6.971 -7.169,11.078 -9.475,28.503 -3.375,36.691 2.807,44.99 7.156,9.605 14.414,19.35 2.111,54.559 -0.668,1.91 -1.247,3.824 -1.756,5.743 z m -16.987,0 h 4.839 c 11.689,-16.255 16.823,-33.726 1.636,-48.913 -12.854,-12.854 -7.495,-49.921 -3.175,-79.803 2.559,-17.703 4.765,-32.953 2.621,-39.992 -11.597,-38.07 -9.369,-43.967 -5.967,-52.967 2.321,-6.142 5.154,-13.642 5.045,-31.988 h -3.868 c 0.104,17.65 -2.59,24.781 -4.798,30.625 -0.51,1.35 -0.996,2.637 -1.423,3.955 V 0.436 c 1.35,6.894 3.662,15.818 7.314,27.804 1.888,6.201 -0.261,21.067 -2.756,38.326 -1.812,12.528 -3.8,26.286 -4.558,39.149 v 18.836 c 0.826,10.702 3.376,19.657 8.824,25.105 13.956,13.956 8.065,30.637 -3.734,46.171"
             style="fill:#bd4c1f;fill-opacity:1;fill-rule:evenodd;stroke:none"
             id="path6270" />
        </g>
        <path
           d="m 61.452,390.972 h 64.853 v 9.645 H 61.452 Z"
           style="fill:#892f1b;fill-opacity:1;fill-rule:evenodd;stroke:none"
           id="path6272" />
        <g
           id="g6274"
           transform="translate(90.5967,390.9712)">
          <path
             d="m 0,0 h -4.071 c -0.287,0.86 -0.584,1.734 -0.896,2.629 -0.817,2.339 -1.51,4.677 -2.101,7.016 h 3.996 C -2.563,7.726 -1.984,5.811 -1.316,3.902 -0.849,2.564 -0.413,1.266 0,0 M 16.886,0 H 12.97 c 0.387,2.61 0.791,5.539 1.084,9.645 h 3.887 C 17.658,5.574 17.268,2.611 16.886,0 M 29.03,0 h -3.878 v 0.146 c 0,3.414 10e-4,6.569 0.007,9.499 h 3.879 C 29.031,6.723 29.03,3.566 29.03,0.146 Z m -53.085,9.645 h 4.839 C -16.932,6.468 -14.899,3.244 -13.217,0 h -4.458 c -1.8,3.241 -3.967,6.467 -6.38,9.645"
             style="fill:#a33b1f;fill-opacity:1;fill-rule:evenodd;stroke:none"
             id="path6276" />
        </g>
        <path
           d="M 474.588,146.953 H 539.44 V 400.617 H 474.588 Z"
           style="fill:#a33b1f;fill-opacity:1;fill-rule:evenodd;stroke:none"
           id="path6278" />
        <g
           id="g6280"
           transform="translate(539.4395,204.7891)">
          <path
             d="m 0,0 v -5.326 c -2.904,-2.77 -5.518,-5.371 -7.498,-7.746 -3.637,-4.364 -5.134,-7.942 -2.135,-10.444 3.602,-3.002 6.877,-6.871 9.633,-11.22 v -8.012 c -3.027,6.424 -7.25,12.217 -12.103,16.264 -5.297,4.418 -3.496,9.724 1.636,15.88 C -7.719,-7.307 -4.019,-3.783 0,0 m -10.549,195.827 h 3.879 c -0.007,-2.922 -0.007,-6.078 -0.007,-9.498 0,-8.983 0.755,-16.638 1.425,-23.426 0.547,-5.542 1.038,-10.521 1.038,-15.111 0,-6.722 -1.191,-13.16 -2.308,-19.206 -2.196,-11.864 -4.093,-22.118 4.787,-29.222 C -0.043,98.01 -0.53,98.403 0,97.982 v -4.949 l -1.183,0.944 c -0.534,0.427 1.417,-1.131 -2.962,2.372 -10.691,8.554 -8.6,19.857 -6.18,32.935 1.081,5.845 2.232,12.072 2.232,18.508 0,4.518 -0.476,9.353 -1.007,14.733 -0.684,6.932 -1.455,14.75 -1.455,23.804 0,3.413 10e-4,6.568 0.006,9.498 m -11.104,0 c -0.328,-4.601 -0.795,-7.724 -1.223,-10.576 -1.181,-7.889 -2.064,-13.782 0.913,-41.275 2.039,-18.825 -5.7,-23.836 -10.523,-26.958 -1.6,-1.035 -2.931,-1.897 -3.81,-3.067 -3.139,-4.181 0.661,-9 22.886,-25.684 10.576,-7.941 3.328,-40.089 -3.867,-72.003 -6.577,-29.17 -13.112,-58.155 -5.929,-70.364 0.098,-0.166 0.449,-0.869 0.943,-1.863 0.273,-0.545 0.587,-1.176 0.942,-1.873 h 4.351 c -0.727,1.406 -1.344,2.645 -1.822,3.602 -0.487,0.974 -0.831,1.664 -1.081,2.089 -6.408,10.893 -0.04,39.133 6.367,67.559 7.47,33.129 14.993,66.5 2.414,75.943 -19.678,14.772 -23.47,18.47 -22.113,20.276 0.458,0.611 1.533,1.307 2.824,2.142 5.592,3.62 14.56,9.427 12.266,30.609 -2.922,26.991 -2.07,32.685 -0.929,40.306 0.449,2.991 0.94,6.273 1.277,11.137 z m -21.121,0 c 0.589,-2.339 1.282,-4.677 2.1,-7.016 11.627,-33.274 4.985,-42.191 -1.565,-50.983 -6.784,-9.106 -13.479,-18.092 -3.368,-48.506 1.596,-4.806 4.66,-8.486 7.866,-12.334 8.504,-10.213 18.096,-21.732 -1.999,-59.877 -7.247,-13.757 -5.294,-37.904 -3.546,-59.484 0.436,-5.404 0.86,-10.637 1.13,-15.463 h 3.865 c -0.259,4.961 -0.689,10.281 -1.133,15.766 -1.705,21.06 -3.613,44.625 3.109,57.381 21.297,40.421 10.826,52.998 1.543,64.146 -2.968,3.564 -5.803,6.971 -7.169,11.078 -9.476,28.503 -3.375,36.691 2.807,44.99 7.156,9.605 14.414,19.35 2.11,54.559 -0.666,1.91 -1.247,3.824 -1.755,5.743 z m -16.989,0 h 4.84 c 11.69,-16.255 16.823,-33.726 1.637,-48.913 -12.855,-12.854 -7.496,-49.921 -3.176,-79.803 2.56,-17.703 4.765,-32.953 2.62,-39.992 -11.596,-38.07 -9.368,-43.967 -5.966,-52.967 2.321,-6.142 5.154,-13.642 5.044,-31.988 h -3.868 c 0.105,17.65 -2.59,24.781 -4.797,30.625 -0.51,1.35 -0.997,2.637 -1.423,3.955 V 0.436 c 1.35,6.894 3.663,15.818 7.313,27.804 1.89,6.201 -0.261,21.067 -2.755,38.326 -1.811,12.528 -3.8,26.286 -4.558,39.149 v 18.836 c 0.826,10.702 3.376,19.657 8.823,25.105 13.957,13.956 8.066,30.637 -3.734,46.171"
             style="fill:#bd4c1f;fill-opacity:1;fill-rule:evenodd;stroke:none"
             id="path6282" />
        </g>
        <path
           d="m 474.588,390.972 h 64.852 v 9.645 h -64.852 z"
           style="fill:#892f1b;fill-opacity:1;fill-rule:evenodd;stroke:none"
           id="path6284" />
        <g
           id="g6286"
           transform="translate(503.7324,390.9712)">
          <path
             d="m 0,0 h -4.07 c -0.288,0.86 -0.584,1.734 -0.897,2.629 -0.818,2.339 -1.511,4.677 -2.1,7.016 h 3.995 C -2.564,7.726 -1.983,5.811 -1.317,3.902 -0.85,2.564 -0.412,1.266 0,0 m 16.887,0 h -3.916 c 0.386,2.61 0.791,5.539 1.083,9.645 H 17.94 C 17.657,5.574 17.268,2.611 16.887,0 M 29.03,0 h -3.878 v 0.146 c 0,3.414 10e-4,6.569 0.006,9.499 h 3.879 C 29.03,6.723 29.03,3.566 29.03,0.146 Z m -53.086,9.645 h 4.84 C -16.931,6.468 -14.898,3.244 -13.218,0 h -4.458 c -1.799,3.241 -3.965,6.467 -6.38,9.645"
             style="fill:#a33b1f;fill-opacity:1;fill-rule:evenodd;stroke:none"
             id="path6288" />
        </g>
        <path
           d="M 126.305,157.623 H 184.36 V 383.789 H 126.305 Z"
           style="fill:#7e2b1a;fill-opacity:1;fill-rule:evenodd;stroke:none"
           id="path6290" />
        <g
           id="g6292"
           transform="translate(184.3594,323.0757)">
          <path
             d="m 0,0 c -5.234,-7.497 -9.834,-14.434 -11.993,-19.277 -1.718,-3.852 -0.537,-13.449 0.786,-24.213 1.567,-12.74 3.343,-27.179 0.804,-34.125 -3.13,-8.558 -4.416,-24.259 -2.081,-37.183 1.771,-9.803 5.668,-18.145 12.484,-21.088 v 4.504 c -4.307,3.009 -6.963,9.574 -8.344,17.218 -2.231,12.344 -1.034,27.25 1.917,35.323 2.838,7.763 1.008,22.644 -0.607,35.775 -1.261,10.254 -2.386,19.397 -1.083,22.319 1.542,3.459 4.516,8.207 8.117,13.524 z m -12.422,60.713 h 4.199 c 0.141,-2.939 0.088,-6.278 -0.084,-9.63 -0.46,-9.022 -1.814,-18.291 -2.472,-19.966 -1.362,-3.459 -1.374,-7.185 -1.387,-11.322 -0.022,-7.092 -0.048,-15.306 -6.226,-25.998 -0.275,-0.476 -0.539,-1.654 -0.898,-3.258 -0.873,-3.901 -2.245,-10.033 -6.528,-17.378 -2.243,-3.85 -3.433,-9.321 -3.217,-14.58 0.193,-4.67 1.493,-9.11 4.144,-11.955 8.47,-9.09 6.555,-37.92 5.091,-59.965 -0.477,-7.19 -0.906,-13.641 -0.906,-18.424 0,-2.098 -0.05,-4.711 -0.097,-7.203 -0.2,-10.535 -0.353,-18.692 4.544,-26.487 h -4.921 c -4.165,7.838 -4.01,16.104 -3.811,26.547 0.038,2.061 0.08,4.221 0.08,7.143 0,4.758 0.437,11.328 0.923,18.652 1.419,21.369 3.276,49.319 -4.089,57.223 -3.309,3.551 -4.921,8.851 -5.146,14.332 -0.242,5.914 1.127,12.123 3.709,16.551 4.002,6.862 5.296,12.64 6.118,16.317 0.429,1.919 0.746,3.33 1.308,4.302 5.688,9.847 5.714,17.539 5.734,24.181 0.014,4.505 0.027,8.562 1.631,12.64 0.575,1.458 1.785,10.146 2.228,18.83 0.169,3.31 0.221,6.598 0.073,9.448 m -21.191,0 c 0.004,-0.173 0.009,-0.348 0.02,-0.525 0.209,-3.814 2.021,-8.478 4.273,-14.275 l -0.007,-0.002 0.572,-1.476 c 1.706,-4.407 2.506,-10.055 2.167,-15.641 -0.307,-5.08 -1.554,-10.071 -3.913,-13.975 -4.895,-8.095 -5.625,-16.176 -6.334,-24.044 -0.719,-7.968 -1.418,-15.706 -6.662,-22.587 -5.809,-7.619 -2.955,-12.66 0.921,-19.504 3.585,-6.332 8.166,-14.418 6.157,-28.361 -0.553,-3.84 -3.08,-8.373 -5.436,-12.596 -4.093,-7.34 -7.746,-13.891 -1.733,-17.238 3.249,-1.807 5.579,-8.951 6.896,-17.078 1.662,-10.264 1.569,-21.815 -0.332,-26.61 -1.724,-4.343 -2.506,-8.125 -3.208,-11.513 l -0.154,-0.741 h 4.274 l 0.003,0.014 c 0.673,3.254 1.424,6.885 3.026,10.922 2.115,5.328 2.295,17.689 0.546,28.49 -1.481,9.139 -4.421,17.352 -8.883,19.836 -2.656,1.477 0.15,6.51 3.294,12.147 2.514,4.505 5.211,9.343 5.862,13.867 2.182,15.142 -2.744,23.842 -6.6,30.65 -3.193,5.637 -5.544,9.789 -1.199,15.49 5.904,7.747 6.649,15.998 7.417,24.494 0.673,7.467 1.364,15.137 5.807,22.484 2.686,4.443 4.099,10.022 4.44,15.641 0.369,6.099 -0.516,12.294 -2.397,17.156 l -0.573,1.475 h -0.008 c -2.133,5.494 -3.85,9.912 -4.028,13.156 -0.007,0.116 -0.01,0.231 -0.012,0.344 z m -12.474,0 h 4.804 c -1.677,-2.475 -3.023,-5.63 -4.013,-8.976 -1.176,-3.976 -1.843,-8.193 -1.971,-11.864 -0.153,-4.391 0.349,-7.805 1.561,-8.632 5.526,-3.769 7.34,-14.038 6.994,-25.307 -0.437,-14.232 -4.253,-30.365 -8.271,-36.43 -1.294,-1.953 -1.58,-8.761 -1.016,-15.814 0.523,-6.563 1.806,-13.148 3.725,-16.07 1.987,-3.024 -0.454,-17.719 -2.55,-30.344 -1.218,-7.33 -2.316,-13.94 -2.373,-16.693 -0.053,-2.588 0.884,-5.188 1.97,-8.206 2.105,-5.841 4.728,-13.121 2.757,-25.363 -0.074,-0.461 -0.188,-6.322 -0.296,-13.283 -0.045,-2.996 -0.101,-6.166 -0.157,-9.184 h -4.141 c 0.028,3.073 0.065,6.254 0.11,9.229 0.11,7.15 0.234,13.211 0.328,13.799 1.829,11.363 -0.615,18.144 -2.576,23.59 -1.208,3.355 -2.25,6.246 -2.184,9.478 0.065,3.115 1.176,9.799 2.406,17.209 1.992,11.998 4.312,25.961 3.125,27.768 -2.289,3.482 -3.768,10.728 -4.333,17.797 -0.617,7.73 -0.118,15.472 1.625,18.103 3.709,5.598 7.244,20.879 7.663,34.52 0.311,10.14 -1.049,19.194 -5.303,22.096 -2.386,1.627 -3.447,6.264 -3.252,11.858 0.138,3.951 0.854,8.485 2.118,12.758 0.839,2.835 1.924,5.567 3.25,7.961"
             style="fill:#93331d;fill-opacity:1;fill-rule:evenodd;stroke:none"
             id="path6294" />
        </g>
        <path
           d="m 126.305,157.623 h 5.209 v 226.166 h -5.209 z"
           style="fill:#5a2213;fill-opacity:1;fill-rule:evenodd;stroke:none"
           id="path6296" />
        <path
           d="m 184.359,157.623 h 58.054 v 226.166 h -58.054 z"
           style="fill:#7e2b1a;fill-opacity:1;fill-rule:evenodd;stroke:none"
           id="path6298" />
        <g
           id="g6300"
           transform="translate(242.4131,218.3379)">
          <path
             d="m 0,0 c -5.233,7.496 -9.833,14.434 -11.993,19.277 -1.717,3.852 -0.536,13.45 0.787,24.213 1.567,12.74 3.343,27.18 0.804,34.123 -3.129,8.561 -4.416,24.262 -2.081,37.186 1.77,9.802 5.668,18.145 12.483,21.087 v -4.503 C -4.306,128.374 -6.962,121.809 -8.344,114.164 -10.573,101.82 -9.378,86.914 -6.427,78.842 -3.589,71.078 -5.418,56.195 -7.033,43.066 -8.294,32.813 -9.419,23.668 -8.116,20.748 -6.574,17.287 -3.6,12.541 0,7.223 Z m -12.421,-60.715 h 4.199 c 0.142,2.94 0.087,6.281 -0.084,9.631 -0.46,9.023 -1.814,18.293 -2.472,19.967 -1.363,3.459 -1.374,7.185 -1.387,11.324 -0.023,7.09 -0.048,15.303 -6.227,25.996 -0.274,0.475 -0.538,1.654 -0.896,3.256 -0.873,3.902 -2.246,10.035 -6.529,17.381 -2.244,3.847 -3.433,9.318 -3.216,14.58 0.192,4.67 1.491,9.107 4.144,11.955 8.469,9.09 6.554,37.92 5.09,59.964 -0.477,7.19 -0.906,13.641 -0.906,18.424 0,2.099 -0.05,4.71 -0.098,7.203 -0.199,10.536 -0.351,18.691 4.545,26.485 h -4.922 c -4.164,-7.835 -4.008,-16.102 -3.81,-26.546 0.039,-2.061 0.08,-4.219 0.08,-7.142 0,-4.757 0.437,-11.328 0.923,-18.651 1.42,-21.37 3.275,-49.319 -4.089,-57.223 -3.31,-3.551 -4.92,-8.852 -5.146,-14.332 -0.243,-5.914 1.127,-12.121 3.708,-16.549 4.002,-6.865 5.296,-12.643 6.119,-16.32 0.428,-1.918 0.746,-3.331 1.307,-4.303 5.69,-9.848 5.714,-17.537 5.734,-24.178 0.015,-4.506 0.028,-8.564 1.632,-12.643 0.575,-1.459 1.784,-10.144 2.228,-18.83 0.169,-3.31 0.221,-6.597 0.073,-9.449 m -21.191,0 c 0.004,0.174 0.009,0.352 0.019,0.527 0.21,3.813 2.022,8.479 4.274,14.276 l -0.007,0.002 0.572,1.476 c 1.706,4.407 2.506,10.055 2.167,15.641 -0.308,5.08 -1.555,10.07 -3.914,13.973 -4.894,8.097 -5.624,16.177 -6.333,24.045 -0.719,7.968 -1.418,15.707 -6.662,22.586 -5.809,7.621 -2.954,12.662 0.92,19.505 3.587,6.331 8.167,14.418 6.157,28.362 -0.552,3.84 -3.079,8.37 -5.435,12.596 -4.093,7.339 -7.746,13.89 -1.733,17.235 3.249,1.809 5.58,8.953 6.896,17.079 1.662,10.266 1.569,21.816 -0.332,26.611 -1.724,4.343 -2.507,8.123 -3.208,11.513 l -0.154,0.739 h 4.274 l 0.003,-0.012 c 0.672,-3.254 1.424,-6.884 3.027,-10.922 2.114,-5.33 2.294,-17.689 0.545,-28.489 -1.481,-9.14 -4.422,-17.353 -8.884,-19.836 -2.655,-1.478 0.151,-6.51 3.295,-12.147 2.514,-4.508 5.21,-9.342 5.862,-13.865 2.182,-15.145 -2.744,-23.844 -6.6,-30.653 -3.193,-5.636 -5.544,-9.791 -1.2,-15.49 5.905,-7.746 6.651,-15.996 7.418,-24.494 0.672,-7.467 1.364,-15.137 5.806,-22.484 2.687,-4.442 4.1,-10.022 4.441,-15.641 0.37,-6.1 -0.516,-12.293 -2.398,-17.156 l -0.571,-1.475 h -0.009 c -2.133,-5.494 -3.851,-9.912 -4.028,-13.156 -0.006,-0.115 -0.011,-0.231 -0.011,-0.346 z m -12.475,0 h 4.806 c -1.679,2.477 -3.024,5.633 -4.014,8.977 -1.177,3.976 -1.843,8.193 -1.971,11.865 -0.153,4.391 0.349,7.807 1.56,8.631 5.527,3.771 7.341,14.039 6.995,25.31 -0.437,14.229 -4.253,30.364 -8.27,36.428 -1.295,1.953 -1.581,8.762 -1.018,15.815 0.524,6.562 1.807,13.15 3.725,16.07 1.988,3.025 -0.453,17.719 -2.55,30.342 -1.217,7.329 -2.315,13.941 -2.372,16.695 -0.053,2.587 0.884,5.187 1.97,8.204 2.105,5.842 4.728,13.122 2.756,25.363 -0.074,0.462 -0.187,6.325 -0.295,13.285 -0.045,2.995 -0.101,6.165 -0.157,9.181 h -4.141 c 0.028,-3.069 0.065,-6.252 0.11,-9.227 0.11,-7.149 0.233,-13.211 0.328,-13.799 1.829,-11.361 -0.614,-18.146 -2.576,-23.59 -1.209,-3.355 -2.25,-6.245 -2.183,-9.478 0.063,-3.115 1.174,-9.8 2.405,-17.209 1.993,-11.996 4.312,-25.96 3.125,-27.767 -2.289,-3.483 -3.768,-10.731 -4.334,-17.797 -0.616,-7.73 -0.117,-15.473 1.625,-18.104 3.709,-5.597 7.245,-20.878 7.664,-34.519 0.311,-10.141 -1.049,-19.195 -5.304,-22.098 -2.385,-1.627 -3.446,-6.263 -3.251,-11.857 0.138,-3.949 0.853,-8.486 2.118,-12.758 0.839,-2.834 1.924,-5.568 3.249,-7.963"
             style="fill:#93331d;fill-opacity:1;fill-rule:evenodd;stroke:none"
             id="path6302" />
        </g>
        <path
           d="m 184.381,157.623 h 5.208 v 226.166 h -5.208 z"
           style="fill:#5a2213;fill-opacity:1;fill-rule:evenodd;stroke:none"
           id="path6304" />
        <path
           d="m 242.392,157.623 h 58.054 v 226.166 h -58.054 z"
           style="fill:#7e2b1a;fill-opacity:1;fill-rule:evenodd;stroke:none"
           id="path6306" />
        <g
           id="g6308"
           transform="translate(247.0576,323.0757)">
          <path
             d="M 0,0 C 5.234,-7.497 9.834,-14.434 11.993,-19.277 13.71,-23.129 12.53,-32.726 11.206,-43.49 9.64,-56.23 7.864,-70.669 10.402,-77.615 c 3.13,-8.558 4.416,-24.259 2.081,-37.183 C 10.714,-124.601 6.816,-132.943 0,-135.886 v 4.504 c 4.307,3.009 6.963,9.574 8.345,17.218 2.229,12.344 1.034,27.25 -1.918,35.323 -2.838,7.763 -1.008,22.644 0.607,35.775 1.261,10.254 2.385,19.397 1.083,22.319 C 6.575,-17.288 3.601,-12.54 0,-7.223 Z M 12.422,60.713 H 8.223 c -0.142,-2.939 -0.087,-6.278 0.084,-9.63 0.46,-9.022 1.813,-18.291 2.472,-19.966 1.362,-3.459 1.373,-7.185 1.387,-11.322 0.022,-7.092 0.048,-15.306 6.226,-25.998 0.275,-0.476 0.54,-1.654 0.897,-3.258 0.873,-3.901 2.245,-10.033 6.528,-17.378 2.245,-3.85 3.433,-9.321 3.217,-14.58 -0.192,-4.67 -1.491,-9.11 -4.143,-11.955 -8.47,-9.09 -6.556,-37.92 -5.091,-59.965 0.476,-7.19 0.906,-13.641 0.906,-18.424 0,-2.098 0.051,-4.711 0.098,-7.203 0.198,-10.535 0.35,-18.692 -4.545,-26.487 h 4.921 c 4.165,7.838 4.01,16.104 3.812,26.547 -0.04,2.061 -0.08,4.221 -0.08,7.143 0,4.758 -0.438,11.328 -0.925,18.652 -1.419,21.369 -3.275,49.319 4.089,57.223 3.311,3.551 4.921,8.851 5.147,14.332 0.243,5.914 -1.128,12.123 -3.709,16.551 -4.002,6.862 -5.295,12.64 -6.118,16.317 -0.429,1.919 -0.745,3.33 -1.307,4.302 -5.69,9.847 -5.714,17.539 -5.735,24.181 -0.014,4.505 -0.028,8.562 -1.632,12.64 -0.574,1.458 -1.784,10.146 -2.228,18.83 -0.168,3.31 -0.22,6.598 -0.072,9.448 m 21.19,0 C 33.608,60.54 33.604,60.365 33.594,60.188 33.383,56.374 31.571,51.71 29.319,45.913 l 0.007,-0.002 -0.571,-1.476 C 27.05,40.028 26.248,34.38 26.587,28.794 c 0.308,-5.08 1.556,-10.071 3.915,-13.975 4.895,-8.095 5.623,-16.176 6.334,-24.044 0.719,-7.968 1.416,-15.706 6.66,-22.587 5.81,-7.619 2.954,-12.66 -0.921,-19.504 -3.586,-6.332 -8.166,-14.418 -6.156,-28.361 0.553,-3.84 3.081,-8.373 5.435,-12.596 4.094,-7.34 7.747,-13.891 1.735,-17.238 -3.25,-1.807 -5.58,-8.951 -6.897,-17.078 -1.663,-10.264 -1.569,-21.815 0.333,-26.61 1.722,-4.343 2.505,-8.125 3.207,-11.513 l 0.154,-0.741 h -4.275 l -0.003,0.014 c -0.672,3.254 -1.423,6.885 -3.027,10.922 -2.113,5.328 -2.293,17.689 -0.545,28.49 1.482,9.139 4.422,17.352 8.885,19.836 2.654,1.477 -0.152,6.51 -3.295,12.147 -2.515,4.505 -5.211,9.343 -5.862,13.867 -2.183,15.142 2.744,23.842 6.6,30.65 3.194,5.637 5.545,9.789 1.2,15.49 -5.906,7.747 -6.652,15.998 -7.417,24.494 -0.673,7.467 -1.366,15.137 -5.808,22.484 -2.686,4.443 -4.1,10.022 -4.439,15.641 -0.372,6.099 0.516,12.294 2.397,17.156 l 0.572,1.475 h 0.008 c 2.133,5.494 3.851,9.912 4.028,13.156 0.007,0.116 0.01,0.231 0.011,0.344 z m 12.475,0 h -4.805 c 1.678,-2.475 3.024,-5.63 4.014,-8.976 1.176,-3.976 1.843,-8.193 1.971,-11.864 0.154,-4.391 -0.349,-7.805 -1.561,-8.632 -5.527,-3.769 -7.339,-14.038 -6.994,-25.307 0.437,-14.232 4.254,-30.365 8.27,-36.43 1.295,-1.953 1.581,-8.761 1.018,-15.814 -0.523,-6.563 -1.806,-13.148 -3.727,-16.07 -1.986,-3.024 0.454,-17.719 2.551,-30.344 1.218,-7.33 2.316,-13.94 2.373,-16.693 0.054,-2.588 -0.883,-5.188 -1.97,-8.206 -2.105,-5.841 -4.728,-13.121 -2.756,-25.363 0.074,-0.461 0.186,-6.322 0.295,-13.283 0.045,-2.996 0.101,-6.166 0.156,-9.184 h 4.142 c -0.028,3.073 -0.064,6.254 -0.11,9.229 -0.11,7.15 -0.233,13.211 -0.328,13.799 -1.829,11.363 0.614,18.144 2.576,23.59 1.207,3.355 2.25,6.246 2.183,9.478 -0.064,3.115 -1.176,9.799 -2.406,17.209 -1.993,11.998 -4.311,25.961 -3.122,27.768 2.287,3.482 3.765,10.728 4.331,17.797 0.617,7.73 0.118,15.472 -1.624,18.103 -3.71,5.598 -7.246,20.879 -7.664,34.52 -0.311,10.14 1.049,19.194 5.303,22.096 2.386,1.627 3.447,6.264 3.253,11.858 -0.14,3.951 -0.855,8.485 -2.119,12.758 -0.84,2.835 -1.925,5.567 -3.25,7.961"
             style="fill:#93331d;fill-opacity:1;fill-rule:evenodd;stroke:none"
             id="path6310" />
        </g>
        <path
           d="m 242.413,157.623 h 5.209 v 226.166 h -5.209 z"
           style="fill:#5a2213;fill-opacity:1;fill-rule:evenodd;stroke:none"
           id="path6312" />
        <path
           d="M 300.445,157.623 H 358.5 v 226.166 h -58.055 z"
           style="fill:#7e2b1a;fill-opacity:1;fill-rule:evenodd;stroke:none"
           id="path6314" />
        <g
           id="g6316"
           transform="translate(305.1123,218.3379)">
          <path
             d="m 0,0 c 5.233,7.496 9.834,14.434 11.993,19.277 1.717,3.852 0.536,13.45 -0.787,24.213 -1.565,12.74 -3.343,27.18 -0.805,34.123 3.131,8.561 4.418,24.262 2.082,37.186 -1.77,9.802 -5.668,18.145 -12.483,21.087 v -4.503 C 4.307,128.374 6.963,121.809 8.345,114.164 10.574,101.82 9.378,86.914 6.427,78.842 3.589,71.078 5.418,56.195 7.035,43.066 8.295,32.813 9.42,23.668 8.117,20.748 6.575,17.287 3.601,12.541 0,7.223 Z M 12.422,-60.715 H 8.223 c -0.141,2.94 -0.087,6.281 0.084,9.631 0.46,9.023 1.814,18.293 2.471,19.967 1.363,3.459 1.374,7.185 1.388,11.324 0.021,7.09 0.048,15.303 6.226,25.996 0.275,0.475 0.539,1.654 0.898,3.256 0.872,3.902 2.244,10.035 6.526,17.381 2.246,3.847 3.435,9.318 3.218,14.58 -0.192,4.67 -1.492,9.107 -4.143,11.955 -8.471,9.09 -6.555,37.92 -5.091,59.964 0.477,7.19 0.906,13.641 0.906,18.424 0,2.099 0.051,4.71 0.097,7.203 0.2,10.536 0.352,18.691 -4.543,26.485 h 4.921 c 4.164,-7.835 4.009,-16.102 3.81,-26.546 -0.039,-2.061 -0.08,-4.219 -0.08,-7.142 0,-4.757 -0.437,-11.328 -0.924,-18.651 -1.419,-21.37 -3.275,-49.319 4.089,-57.223 3.31,-3.551 4.921,-8.852 5.146,-14.332 C 33.465,35.643 32.096,29.436 29.514,25.008 25.513,18.143 24.218,12.365 23.396,8.688 22.967,6.77 22.65,5.357 22.088,4.385 c -5.689,-9.848 -5.714,-17.537 -5.733,-24.178 -0.015,-4.506 -0.029,-8.564 -1.632,-12.643 -0.575,-1.459 -1.785,-10.144 -2.229,-18.83 -0.168,-3.31 -0.219,-6.597 -0.072,-9.449 m 21.191,0 c -0.004,0.174 -0.01,0.352 -0.02,0.527 -0.209,3.813 -2.022,8.479 -4.273,14.276 l 0.007,0.002 -0.572,1.476 c -1.706,4.407 -2.507,10.055 -2.167,15.641 0.308,5.08 1.554,10.07 3.913,13.973 4.897,8.097 5.624,16.177 6.334,24.045 0.719,7.968 1.417,15.707 6.662,22.586 5.809,7.621 2.954,12.662 -0.921,19.505 -3.586,6.331 -8.167,14.418 -6.157,28.362 0.554,3.84 3.08,8.37 5.436,12.596 4.093,7.339 7.747,13.89 1.734,17.235 -3.251,1.809 -5.581,8.953 -6.898,17.079 -1.662,10.266 -1.569,21.816 0.333,26.611 1.724,4.343 2.507,8.123 3.208,11.513 l 0.154,0.739 h -4.275 l -0.002,-0.012 c -0.673,-3.254 -1.424,-6.884 -3.028,-10.922 -2.113,-5.33 -2.294,-17.689 -0.545,-28.489 1.481,-9.14 4.422,-17.353 8.884,-19.836 2.655,-1.478 -0.15,-6.51 -3.295,-12.147 -2.513,-4.508 -5.211,-9.342 -5.861,-13.865 -2.182,-15.145 2.743,-23.844 6.6,-30.653 3.193,-5.636 5.544,-9.791 1.199,-15.49 -5.905,-7.746 -6.65,-15.996 -7.415,-24.494 -0.674,-7.467 -1.367,-15.137 -5.809,-22.484 -2.686,-4.442 -4.1,-10.022 -4.44,-15.641 -0.37,-6.1 0.516,-12.293 2.397,-17.156 l 0.572,-1.475 h 0.008 c 2.134,-5.494 3.851,-9.912 4.029,-13.156 0.006,-0.115 0.01,-0.231 0.011,-0.346 z m 12.474,0 h -4.805 c 1.678,2.477 3.023,5.633 4.013,8.977 1.177,3.976 1.843,8.193 1.971,11.865 0.154,4.391 -0.349,7.807 -1.56,8.631 -5.527,3.771 -7.34,14.039 -6.994,25.31 0.436,14.229 4.253,30.364 8.27,36.428 1.294,1.953 1.582,8.762 1.017,15.815 -0.523,6.562 -1.806,13.15 -3.725,16.07 -1.987,3.025 0.454,17.719 2.549,30.342 1.218,7.329 2.318,13.941 2.373,16.695 0.054,2.587 -0.882,5.187 -1.97,8.204 -2.105,5.842 -4.726,13.122 -2.755,25.363 0.073,0.462 0.186,6.325 0.294,13.285 0.047,2.995 0.101,6.165 0.157,9.181 h 4.141 c -0.028,-3.069 -0.064,-6.252 -0.11,-9.227 -0.109,-7.149 -0.233,-13.211 -0.327,-13.799 -1.829,-11.361 0.614,-18.146 2.576,-23.59 1.208,-3.355 2.25,-6.245 2.184,-9.478 C 53.321,106.242 52.21,99.557 50.98,92.148 48.986,80.152 46.667,66.188 47.855,64.381 50.143,60.898 51.623,53.65 52.189,46.584 52.806,38.854 52.306,31.111 50.564,28.48 46.855,22.883 43.319,7.602 42.899,-6.039 c -0.31,-10.141 1.05,-19.195 5.305,-22.098 2.385,-1.627 3.445,-6.263 3.25,-11.857 -0.137,-3.949 -0.853,-8.486 -2.117,-12.758 -0.839,-2.834 -1.924,-5.568 -3.25,-7.963"
             style="fill:#93331d;fill-opacity:1;fill-rule:evenodd;stroke:none"
             id="path6318" />
        </g>
        <path
           d="m 300.445,157.623 h 5.21 v 226.166 h -5.21 z"
           style="fill:#5a2213;fill-opacity:1;fill-rule:evenodd;stroke:none"
           id="path6320" />
        <path
           d="m 358.5,157.623 h 58.056 V 383.789 H 358.5 Z"
           style="fill:#7e2b1a;fill-opacity:1;fill-rule:evenodd;stroke:none"
           id="path6322" />
        <g
           id="g6324"
           transform="translate(416.5557,218.3379)">
          <path
             d="m 0,0 c -5.235,7.496 -9.834,14.434 -11.993,19.277 -1.719,3.852 -0.537,13.45 0.787,24.213 1.565,12.74 3.342,27.18 0.803,34.123 -3.129,8.561 -4.416,24.262 -2.08,37.186 1.769,9.802 5.667,18.145 12.483,21.087 v -4.503 C -4.307,128.374 -6.963,121.809 -8.345,114.164 -10.574,101.82 -9.379,86.914 -6.427,78.842 -3.589,71.078 -5.42,56.195 -7.035,43.066 -8.295,32.813 -9.42,23.668 -8.117,20.748 -6.575,17.287 -3.602,12.541 0,7.223 Z m -12.422,-60.715 h 4.199 c 0.142,2.94 0.087,6.281 -0.084,9.631 -0.46,9.023 -1.813,18.293 -2.473,19.967 -1.361,3.459 -1.373,7.185 -1.386,11.324 -0.023,7.09 -0.048,15.303 -6.227,25.996 -0.274,0.475 -0.538,1.654 -0.896,3.256 -0.873,3.902 -2.246,10.035 -6.529,17.381 -2.244,3.847 -3.433,9.318 -3.216,14.58 0.192,4.67 1.491,9.107 4.144,11.955 8.469,9.09 6.554,37.92 5.089,59.964 -0.476,7.19 -0.905,13.641 -0.905,18.424 0,2.099 -0.05,4.71 -0.098,7.203 -0.199,10.536 -0.351,18.691 4.545,26.485 h -4.922 c -4.165,-7.835 -4.009,-16.102 -3.81,-26.546 0.039,-2.061 0.08,-4.219 0.08,-7.142 0,-4.757 0.436,-11.328 0.923,-18.651 1.419,-21.37 3.276,-49.319 -4.088,-57.223 -3.31,-3.551 -4.921,-8.852 -5.146,-14.332 -0.243,-5.914 1.126,-12.121 3.707,-16.549 4.002,-6.865 5.296,-12.643 6.119,-16.32 0.429,-1.918 0.746,-3.331 1.307,-4.303 5.689,-9.848 5.714,-17.537 5.734,-24.178 0.015,-4.506 0.029,-8.564 1.633,-12.643 0.574,-1.459 1.783,-10.144 2.228,-18.83 0.168,-3.31 0.22,-6.597 0.072,-9.449 m -21.191,0 c 0.004,0.174 0.008,0.352 0.019,0.527 0.21,3.813 2.022,8.479 4.274,14.276 l -0.007,0.002 0.572,1.476 c 1.706,4.407 2.506,10.055 2.167,15.641 -0.308,5.08 -1.554,10.07 -3.914,13.973 -4.896,8.097 -5.623,16.177 -6.333,24.045 -0.719,7.968 -1.418,15.707 -6.662,22.586 -5.81,7.621 -2.954,12.662 0.921,19.505 3.585,6.331 8.166,14.418 6.157,28.362 -0.554,3.84 -3.08,8.37 -5.436,12.596 -4.093,7.339 -7.747,13.89 -1.734,17.235 3.249,1.809 5.581,8.953 6.897,17.079 1.661,10.266 1.569,21.816 -0.332,26.611 -1.724,4.343 -2.507,8.123 -3.209,11.513 l -0.154,0.739 h 4.275 l 0.003,-0.012 c 0.673,-3.254 1.424,-6.884 3.027,-10.922 2.114,-5.33 2.293,-17.689 0.546,-28.489 -1.483,-9.14 -4.423,-17.353 -8.885,-19.836 -2.654,-1.478 0.151,-6.51 3.295,-12.147 2.514,-4.508 5.21,-9.342 5.862,-13.865 2.182,-15.145 -2.745,-23.844 -6.6,-30.653 -3.193,-5.636 -5.544,-9.791 -1.201,-15.49 5.907,-7.746 6.652,-15.996 7.417,-24.494 0.674,-7.467 1.366,-15.137 5.809,-22.484 2.686,-4.442 4.099,-10.022 4.44,-15.641 0.37,-6.1 -0.516,-12.293 -2.397,-17.156 l -0.572,-1.475 h -0.008 c -2.134,-5.494 -3.851,-9.912 -4.03,-13.156 -0.005,-0.115 -0.009,-0.231 -0.011,-0.346 z m -12.475,0 h 4.805 c -1.678,2.477 -3.024,5.633 -4.014,8.977 -1.176,3.976 -1.842,8.193 -1.971,11.865 -0.152,4.391 0.349,7.807 1.561,8.631 5.528,3.771 7.341,14.039 6.995,25.31 -0.437,14.229 -4.253,30.364 -8.271,36.428 -1.294,1.953 -1.581,8.762 -1.017,15.815 0.524,6.562 1.807,13.15 3.726,16.07 1.986,3.025 -0.454,17.719 -2.551,30.342 -1.217,7.329 -2.316,13.941 -2.371,16.695 -0.054,2.587 0.882,5.187 1.968,8.204 2.106,5.842 4.728,13.122 2.757,25.363 -0.073,0.462 -0.187,6.325 -0.296,13.285 -0.045,2.995 -0.101,6.165 -0.156,9.181 h -4.142 c 0.029,-3.069 0.066,-6.252 0.111,-9.227 0.11,-7.149 0.233,-13.211 0.328,-13.799 1.829,-11.361 -0.615,-18.146 -2.576,-23.59 -1.208,-3.355 -2.25,-6.245 -2.184,-9.478 0.065,-3.115 1.175,-9.8 2.406,-17.209 1.993,-11.996 4.311,-25.96 3.125,-27.767 -2.29,-3.483 -3.768,-10.731 -4.334,-17.797 -0.617,-7.73 -0.117,-15.473 1.625,-18.104 3.709,-5.597 7.245,-20.878 7.663,-34.519 0.311,-10.141 -1.049,-19.195 -5.302,-22.098 -2.386,-1.627 -3.446,-6.263 -3.252,-11.857 0.138,-3.949 0.854,-8.486 2.118,-12.758 0.839,-2.834 1.924,-5.568 3.249,-7.963"
             style="fill:#93331d;fill-opacity:1;fill-rule:evenodd;stroke:none"
             id="path6326" />
        </g>
        <path
           d="m 358.523,157.623 h 5.208 v 226.166 h -5.208 z"
           style="fill:#5a2213;fill-opacity:1;fill-rule:evenodd;stroke:none"
           id="path6328" />
        <path
           d="m 416.532,157.623 h 58.056 v 226.166 h -58.056 z"
           style="fill:#7e2b1a;fill-opacity:1;fill-rule:evenodd;stroke:none"
           id="path6330" />
        <g
           id="g6332"
           transform="translate(421.2002,323.0757)">
          <path
             d="m 0,0 c 5.233,-7.497 9.834,-14.434 11.993,-19.277 1.717,-3.852 0.535,-13.449 -0.787,-24.213 -1.567,-12.74 -3.344,-27.179 -0.805,-34.125 3.129,-8.558 4.416,-24.259 2.082,-37.183 -1.77,-9.803 -5.668,-18.145 -12.483,-21.088 v 4.504 c 4.306,3.009 6.962,9.574 8.344,17.218 2.23,12.344 1.034,27.25 -1.917,35.323 -2.838,7.763 -1.009,22.644 0.606,35.775 1.261,10.254 2.385,19.397 1.083,22.319 C 6.573,-17.288 3.599,-12.54 0,-7.223 Z M 12.42,60.713 H 8.222 c -0.141,-2.939 -0.088,-6.278 0.083,-9.63 0.461,-9.022 1.814,-18.291 2.473,-19.966 1.362,-3.459 1.373,-7.185 1.387,-11.322 0.021,-7.092 0.048,-15.306 6.227,-25.998 0.273,-0.476 0.538,-1.654 0.896,-3.258 0.872,-3.901 2.246,-10.033 6.528,-17.378 2.245,-3.85 3.433,-9.321 3.216,-14.58 -0.192,-4.67 -1.491,-9.11 -4.142,-11.955 -8.471,-9.09 -6.556,-37.92 -5.091,-59.965 0.476,-7.19 0.905,-13.641 0.905,-18.424 0,-2.098 0.051,-4.711 0.098,-7.203 0.199,-10.535 0.352,-18.692 -4.544,-26.487 h 4.921 c 4.165,7.838 4.009,16.104 3.811,26.547 -0.04,2.061 -0.08,4.221 -0.08,7.143 0,4.758 -0.437,11.328 -0.923,18.652 -1.419,21.369 -3.276,49.319 4.089,57.223 3.31,3.551 4.919,8.851 5.146,14.332 0.243,5.914 -1.128,12.123 -3.71,16.551 -4,6.862 -5.295,12.64 -6.118,16.317 -0.429,1.919 -0.745,3.33 -1.307,4.302 -5.689,9.847 -5.713,17.539 -5.735,24.181 -0.013,4.505 -0.026,8.562 -1.631,12.64 -0.575,1.458 -1.785,10.146 -2.227,18.83 -0.169,3.31 -0.221,6.598 -0.074,9.448 m 21.191,0 C 33.607,60.54 33.602,60.365 33.593,60.188 33.383,56.374 31.571,51.71 29.318,45.913 l 0.008,-0.002 -0.573,-1.476 C 27.048,40.028 26.248,34.38 26.586,28.794 c 0.309,-5.08 1.556,-10.071 3.915,-13.975 4.894,-8.095 5.624,-16.176 6.333,-24.044 0.719,-7.968 1.417,-15.706 6.661,-22.587 5.81,-7.619 2.955,-12.66 -0.92,-19.504 -3.586,-6.332 -8.166,-14.418 -6.158,-28.361 0.554,-3.84 3.081,-8.373 5.437,-12.596 4.092,-7.34 7.746,-13.891 1.733,-17.238 -3.249,-1.807 -5.58,-8.951 -6.896,-17.078 -1.662,-10.264 -1.57,-21.815 0.333,-26.61 1.722,-4.343 2.505,-8.125 3.206,-11.513 l 0.154,-0.741 h -4.273 l -0.003,0.014 c -0.673,3.254 -1.425,6.885 -3.027,10.922 -2.115,5.328 -2.294,17.689 -0.545,28.49 1.481,9.139 4.421,17.352 8.884,19.836 2.655,1.477 -0.151,6.51 -3.295,12.147 -2.515,4.505 -5.211,9.343 -5.863,13.867 -2.181,15.142 2.745,23.842 6.602,30.65 3.192,5.637 5.543,9.789 1.199,15.49 -5.907,7.747 -6.651,15.998 -7.418,24.494 -0.673,7.467 -1.364,15.137 -5.808,22.484 -2.686,4.443 -4.098,10.022 -4.439,15.641 -0.37,6.099 0.516,12.294 2.398,17.156 l 0.571,1.475 h 0.009 c 2.133,5.494 3.851,9.912 4.028,13.156 0.006,0.116 0.009,0.231 0.011,0.344 z m 12.476,0 h -4.806 c 1.678,-2.475 3.024,-5.63 4.014,-8.976 1.177,-3.976 1.842,-8.193 1.971,-11.864 0.153,-4.391 -0.349,-7.805 -1.561,-8.632 -5.526,-3.769 -7.34,-14.038 -6.995,-25.307 0.438,-14.232 4.254,-30.365 8.27,-36.43 1.295,-1.953 1.581,-8.761 1.019,-15.814 -0.523,-6.563 -1.807,-13.148 -3.726,-16.07 -1.988,-3.024 0.454,-17.719 2.55,-30.344 1.217,-7.33 2.316,-13.94 2.373,-16.693 0.054,-2.588 -0.883,-5.188 -1.97,-8.206 -2.105,-5.841 -4.728,-13.121 -2.757,-25.363 0.075,-0.461 0.188,-6.322 0.296,-13.283 0.045,-2.996 0.1,-6.166 0.157,-9.184 h 4.141 c -0.029,3.073 -0.065,6.254 -0.11,9.229 -0.111,7.15 -0.234,13.211 -0.329,13.799 -1.829,11.363 0.615,18.144 2.576,23.59 1.209,3.355 2.25,6.246 2.184,9.478 -0.065,3.115 -1.175,9.799 -2.406,17.209 -1.992,11.998 -4.311,25.961 -3.124,27.768 2.288,3.482 3.768,10.728 4.332,17.797 0.618,7.73 0.12,15.472 -1.625,18.103 -3.708,5.598 -7.243,20.879 -7.662,34.52 -0.311,10.14 1.049,19.194 5.303,22.096 2.385,1.627 3.447,6.264 3.252,11.858 -0.139,3.951 -0.853,8.485 -2.117,12.758 -0.84,2.835 -1.926,5.567 -3.25,7.961"
             style="fill:#93331d;fill-opacity:1;fill-rule:evenodd;stroke:none"
             id="path6334" />
        </g>
        <path
           d="m 416.556,157.623 h 5.208 v 226.166 h -5.208 z"
           style="fill:#5a2213;fill-opacity:1;fill-rule:evenodd;stroke:none"
           id="path6336" />
        <g
           id="g6338"
           transform="translate(274.7578,277.4238)">
          <path
             d="m 0,0 c -8.021,0 -14.523,-6.502 -14.523,-14.523 0,-8.022 6.502,-14.524 14.523,-14.524 8.022,0 14.524,6.502 14.524,14.524 C 14.524,-6.502 8.022,0 0,0 m 0,7.375 c 12.094,0 21.898,-9.803 21.898,-21.898 0,-12.094 -9.804,-21.899 -21.898,-21.899 -12.094,0 -21.897,9.805 -21.897,21.899 0,12.095 9.803,21.898 21.897,21.898"
             style="fill:#fab40a;fill-opacity:1;fill-rule:evenodd;stroke:none"
             id="path6340" />
        </g>
        <g
           id="g6342"
           transform="translate(274.7578,266.334)">
          <path
             d="m 0,0 c 6.811,0 12.363,5.553 12.363,12.363 0,6.809 -5.552,12.362 -12.363,12.362 -6.809,0 -12.362,-5.553 -12.362,-12.362 C -12.362,5.553 -6.809,0 0,0"
             style="fill:#df8c16;fill-opacity:1;fill-rule:evenodd;stroke:none"
             id="path6344" />
        </g>
        <g
           id="g6346"
           transform="translate(332.2148,277.4238)">
          <path
             d="m 0,0 c -8.021,0 -14.525,-6.502 -14.525,-14.523 0,-8.022 6.504,-14.524 14.525,-14.524 8.021,0 14.523,6.502 14.523,14.524 C 14.523,-6.502 8.021,0 0,0 m 0,7.375 c 12.093,0 21.897,-9.803 21.897,-21.898 0,-12.094 -9.804,-21.899 -21.897,-21.899 -12.094,0 -21.898,9.805 -21.898,21.899 0,12.095 9.804,21.898 21.898,21.898"
             style="fill:#fab40a;fill-opacity:1;fill-rule:evenodd;stroke:none"
             id="path6348" />
        </g>
        <g
           id="g6350"
           transform="translate(332.2148,266.334)">
          <path
             d="m 0,0 c 6.809,0 12.363,5.553 12.363,12.363 0,6.809 -5.554,12.362 -12.363,12.362 -6.81,0 -12.363,-5.553 -12.363,-12.362 C -12.363,5.553 -6.81,0 0,0"
             style="fill:#df8c16;fill-opacity:1;fill-rule:evenodd;stroke:none"
             id="path6352" />
        </g>
        <g
           id="g6354"
           transform="translate(126.3047,214.2754)">
          <path
             d="M 0,0 H 85.723 L 96.31,-10.586 v -1.85 L 85.723,-21.174 H 0 Z M 0,140.421 H 85.723 L 96.31,129.835 v -1.847 L 85.723,119.249 H 0 Z"
             style="fill:#d7c9c4;fill-opacity:1;fill-rule:evenodd;stroke:none"
             id="path6356" />
        </g>
        <g
           id="g6358"
           transform="translate(126.3047,352.8491)">
          <path
             d="M 0,0 H 85.723 L 96.31,-10.586 85.723,-21.172 H 0 Z"
             style="fill:#948681;fill-opacity:1;fill-rule:evenodd;stroke:none"
             id="path6360" />
        </g>
        <g
           id="g6362"
           transform="translate(151.5195,339.2876)">
          <path
             d="M 0,0 C 1.639,0 2.976,1.337 2.976,2.976 2.976,4.615 1.639,5.952 0,5.952 -1.639,5.952 -2.976,4.615 -2.976,2.976 -2.976,1.337 -1.639,0 0,0"
             style="fill:#463d3b;fill-opacity:1;fill-rule:evenodd;stroke:none"
             id="path6364" />
        </g>
        <g
           id="g6366"
           transform="translate(170.0928,345.2397)">
          <path
             d="M 0,0 C 1.643,0 2.976,-1.333 2.976,-2.977 2.976,-4.62 1.643,-5.952 0,-5.952 c -1.645,0 -2.977,1.332 -2.977,2.975 C -2.977,-1.333 -1.645,0 0,0"
             style="fill:#463d3b;fill-opacity:1;fill-rule:evenodd;stroke:none"
             id="path6368" />
        </g>
        <g
           id="g6370"
           transform="translate(188.6655,345.2397)">
          <path
             d="M 0,0 C 1.644,0 2.976,-1.333 2.976,-2.977 2.976,-4.62 1.644,-5.952 0,-5.952 c -1.643,0 -2.976,1.332 -2.976,2.975 C -2.976,-1.333 -1.643,0 0,0"
             style="fill:#463d3b;fill-opacity:1;fill-rule:evenodd;stroke:none"
             id="path6372" />
        </g>
        <g
           id="g6374"
           transform="translate(207.2402,339.2876)">
          <path
             d="M 0,0 C 1.639,0 2.975,1.337 2.975,2.976 2.975,4.615 1.639,5.952 0,5.952 -1.64,5.952 -2.977,4.615 -2.977,2.976 -2.977,1.337 -1.64,0 0,0"
             style="fill:#463d3b;fill-opacity:1;fill-rule:evenodd;stroke:none"
             id="path6376" />
        </g>
        <g
           id="g6378"
           transform="translate(126.3047,212.4277)">
          <path
             d="M 0,0 H 85.723 L 96.31,-10.588 85.723,-21.174 H 0 Z"
             style="fill:#948681;fill-opacity:1;fill-rule:evenodd;stroke:none"
             id="path6380" />
        </g>
        <g
           id="g6382"
           transform="translate(151.5195,198.8652)">
          <path
             d="M 0,0 C 1.639,0 2.976,1.336 2.976,2.975 2.976,4.615 1.639,5.951 0,5.951 -1.639,5.951 -2.976,4.615 -2.976,2.975 -2.976,1.336 -1.639,0 0,0"
             style="fill:#463d3b;fill-opacity:1;fill-rule:evenodd;stroke:none"
             id="path6384" />
        </g>
        <g
           id="g6386"
           transform="translate(170.0928,204.8164)">
          <path
             d="m 0,0 c 1.643,0 2.976,-1.332 2.976,-2.977 0,-1.642 -1.333,-2.974 -2.976,-2.974 -1.645,0 -2.977,1.332 -2.977,2.974 C -2.977,-1.332 -1.645,0 0,0"
             style="fill:#463d3b;fill-opacity:1;fill-rule:evenodd;stroke:none"
             id="path6388" />
        </g>
        <g
           id="g6390"
           transform="translate(188.6655,204.8164)">
          <path
             d="m 0,0 c 1.644,0 2.976,-1.332 2.976,-2.977 0,-1.642 -1.332,-2.974 -2.976,-2.974 -1.643,0 -2.976,1.332 -2.976,2.974 C -2.976,-1.332 -1.643,0 0,0"
             style="fill:#463d3b;fill-opacity:1;fill-rule:evenodd;stroke:none"
             id="path6392" />
        </g>
        <g
           id="g6394"
           transform="translate(207.2402,198.8652)">
          <path
             d="M 0,0 C 1.639,0 2.975,1.336 2.975,2.975 2.975,4.615 1.639,5.951 0,5.951 -1.64,5.951 -2.977,4.615 -2.977,2.975 -2.977,1.336 -1.64,0 0,0"
             style="fill:#463d3b;fill-opacity:1;fill-rule:evenodd;stroke:none"
             id="path6396" />
        </g>
        <g
           id="g6398"
           transform="translate(474.5879,214.2754)">
          <path
             d="m 0,0 h -85.724 l -10.587,-10.586 v -1.85 l 10.587,-8.738 H 0 Z m 0,140.421 h -85.724 l -10.587,-10.586 v -1.847 l 10.587,-8.739 H 0 Z"
             style="fill:#d7c9c4;fill-opacity:1;fill-rule:evenodd;stroke:none"
             id="path6400" />
        </g>
        <g
           id="g6402"
           transform="translate(474.5879,352.8491)">
          <path
             d="m 0,0 h -85.724 l -10.587,-10.586 10.587,-10.586 H 0 Z"
             style="fill:#948681;fill-opacity:1;fill-rule:evenodd;stroke:none"
             id="path6404" />
        </g>
        <g
           id="g6406"
           transform="translate(449.373,339.2876)">
          <path
             d="M 0,0 C 1.639,0 2.977,1.337 2.977,2.976 2.977,4.615 1.639,5.952 0,5.952 -1.639,5.952 -2.977,4.615 -2.977,2.976 -2.977,1.337 -1.639,0 0,0"
             style="fill:#463d3b;fill-opacity:1;fill-rule:evenodd;stroke:none"
             id="path6408" />
        </g>
        <g
           id="g6410"
           transform="translate(430.7998,345.2397)">
          <path
             d="m 0,0 c -1.643,0 -2.976,-1.333 -2.976,-2.977 0,-1.643 1.333,-2.975 2.976,-2.975 1.644,0 2.976,1.332 2.976,2.975 C 2.976,-1.333 1.644,0 0,0"
             style="fill:#463d3b;fill-opacity:1;fill-rule:evenodd;stroke:none"
             id="path6412" />
        </g>
        <g
           id="g6414"
           transform="translate(412.2266,345.2397)">
          <path
             d="m 0,0 c -1.644,0 -2.976,-1.333 -2.976,-2.977 0,-1.643 1.332,-2.975 2.976,-2.975 1.643,0 2.975,1.332 2.975,2.975 C 2.975,-1.333 1.643,0 0,0"
             style="fill:#463d3b;fill-opacity:1;fill-rule:evenodd;stroke:none"
             id="path6416" />
        </g>
        <g
           id="g6418"
           transform="translate(393.6523,339.2876)">
          <path
             d="M 0,0 C 1.64,0 2.976,1.337 2.976,2.976 2.976,4.615 1.64,5.952 0,5.952 -1.639,5.952 -2.975,4.615 -2.975,2.976 -2.975,1.337 -1.639,0 0,0"
             style="fill:#463d3b;fill-opacity:1;fill-rule:evenodd;stroke:none"
             id="path6420" />
        </g>
        <g
           id="g6422"
           transform="translate(474.5879,212.4277)">
          <path
             d="m 0,0 h -85.724 l -10.587,-10.588 10.587,-10.586 H 0 Z"
             style="fill:#948681;fill-opacity:1;fill-rule:evenodd;stroke:none"
             id="path6424" />
        </g>
        <g
           id="g6426"
           transform="translate(449.373,198.8652)">
          <path
             d="M 0,0 C 1.639,0 2.977,1.336 2.977,2.975 2.977,4.615 1.639,5.951 0,5.951 -1.639,5.951 -2.977,4.615 -2.977,2.975 -2.977,1.336 -1.639,0 0,0"
             style="fill:#463d3b;fill-opacity:1;fill-rule:evenodd;stroke:none"
             id="path6428" />
        </g>
        <g
           id="g6430"
           transform="translate(430.7998,204.8164)">
          <path
             d="m 0,0 c -1.643,0 -2.976,-1.332 -2.976,-2.977 0,-1.642 1.333,-2.974 2.976,-2.974 1.644,0 2.976,1.332 2.976,2.974 C 2.976,-1.332 1.644,0 0,0"
             style="fill:#463d3b;fill-opacity:1;fill-rule:evenodd;stroke:none"
             id="path6432" />
        </g>
        <g
           id="g6434"
           transform="translate(412.2266,204.8164)">
          <path
             d="m 0,0 c -1.644,0 -2.976,-1.332 -2.976,-2.977 0,-1.642 1.332,-2.974 2.976,-2.974 1.643,0 2.975,1.332 2.975,2.974 C 2.975,-1.332 1.643,0 0,0"
             style="fill:#463d3b;fill-opacity:1;fill-rule:evenodd;stroke:none"
             id="path6436" />
        </g>
        <g
           id="g6438"
           transform="translate(393.6523,198.8652)">
          <path
             d="M 0,0 C 1.64,0 2.976,1.336 2.976,2.975 2.976,4.615 1.64,5.951 0,5.951 -1.639,5.951 -2.975,4.615 -2.975,2.975 -2.975,1.336 -1.639,0 0,0"
             style="fill:#463d3b;fill-opacity:1;fill-rule:evenodd;stroke:none"
             id="path6440" />
        </g>
      </g>
    </g>
  </g>
</svg>
