<?xml version="1.0" encoding="UTF-8" standalone="no"?> <svg id="Layer_1" data-name="Layer 1" xmlns="http://www.w3.org/2000/svg" viewBox="0 0 64 64"><defs><style>.cls-1{fill:#60a867;}.cls-2{fill:#db735c;}.cls-3{fill:#eeeeed;}.cls-4{fill:#5eb8ab;}.cls-5{fill:#d3ac5c;}</style></defs><title>location-position-place-point-pin-start-destination</title><polygon class="cls-1" points="55 27 38.342 27 32 41 25.706 27 10 27 3 61 61 61 55 27"/><path class="cls-2" d="M32,3a11.551,11.551,0,0,0-3.13.429c-6.644,1.838-9.757,9.559-6.676,15.759L32,41l9.8-21.629c3.526-7.093-1.073-15.808-8.939-16.343C32.588,3.009,32.275,3,32,3Z"/><circle class="cls-3" cx="32" cy="14" r="6"/><polygon class="cls-4" points="59.07 50.061 59 50 48 50 48 61 61 61 59.07 50.061"/><polygon class="cls-5" points="17 45 17 38 7.735 38 3 61 48 61 48 45 17 45"/><polygon class="cls-4" points="7.735 38 22 38 22 27 10 27 7.735 38"/><path d="M32,21a7,7,0,1,0-7-7A7.008,7.008,0,0,0,32,21ZM32,9a5,5,0,1,1-5,5A5.006,5.006,0,0,1,32,9Z"/><path d="M3,62H61a1,1,0,0,0,.984-1.174l-6-34A1,1,0,0,0,55,26H39.892l2.8-6.183a12.524,12.524,0,0,0-.369-11.832,11.621,11.621,0,0,0-9.4-5.955C32.635,2.01,32.3,2,32,2a12.556,12.556,0,0,0-3.4.465,11.651,11.651,0,0,0-7.521,6.542,12.408,12.408,0,0,0,.2,10.592L24.16,26H10a1,1,0,0,0-.979.8l-7,34A1,1,0,0,0,3,62ZM8.551,39H16v6a1,1,0,0,0,1,1H47V60H4.227ZM49,60V51h9.22l1.588,9ZM22.91,9.822a9.656,9.656,0,0,1,6.227-5.429A10.56,10.56,0,0,1,32,4c.253,0,.541.008.791.025a9.656,9.656,0,0,1,7.8,4.955,10.549,10.549,0,0,1,.3,9.979L32,38.568,26.618,26.59l0,0L23.09,18.743A10.427,10.427,0,0,1,22.91,9.822ZM31.088,41.41A1,1,0,0,0,32,42h0a1,1,0,0,0,.911-.587L38.986,28H54.161l3.706,21H49V45a1,1,0,0,0-1-1H18V39h4a1,1,0,0,0,1-1V28h2.059ZM21,28v9H8.962l1.853-9Z"/></svg>