<?xml version="1.0" encoding="UTF-8" standalone="no"?> <svg xmlns="http://www.w3.org/2000/svg" viewBox="0 0 512 512"><defs><style>.cls-1{fill:#00a8e7;}.cls-2{fill:#e22526;}.cls-3{fill:#42a87e;}.cls-4{fill:#5ec09b;}.cls-5{fill:#37916a;}</style></defs><g id="Flat"><polygon class="cls-1" points="130.05 367.36 170.27 367.36 180.32 387.46 200.43 387.46 210.48 397.52 200.43 417.63 150.16 467.89 150.16 488 130.05 477.95 120 457.84 140.11 417.63 130.05 397.52 130.05 367.36"/><polygon class="cls-1" points="24 240 24 272 40 272 48 264 56 264 80 288 72 296 96 328 120 344 112 320 136 312 152 296 168 280 152 264 144 248 80 248 64 240 24 240"/><polygon class="cls-1" points="184 248 168 240 168 224 160 216 136 216 88 216 128 192 168 192 184 184 216 184 224 200 216 208 224 224 216 232 184 248"/><polygon class="cls-1" points="232 336 256 336 256 352 288 352 304 360 312 368 288 392 296 408 280 424 264 440 264 416 248 392 248 376 224 376 216 360 232 336"/><polygon class="cls-1" points="488 256 432 232 408 232 384 216 352 216 328 224 296 248 272 240 248 264 248 280 232 288 232 312 256 312 264 296 280 296 296 312 312 312 328 328 344 344 360 328 368 336 368 360 392 376 384 352 400 328 424 312 440 280 464 272 488 256"/><polygon class="cls-1" points="424 408 440 424 432 448 416 448 400 440 384 440 384 416 408 416 416 400 424 408"/><path class="cls-2" d="M488,120a72,72,0,1,0-103.82,64.59L416,272l31.82-87.41A72,72,0,0,0,488,120Z"/><path class="cls-3" d="M408.5,79.72v16a8,8,0,0,0,16,0v-16A8,8,0,0,0,422.44,64H410.56a8,8,0,0,0-2.06,15.72Z"/><path class="cls-3" d="M424.5,159.28v-16a8,8,0,0,0-16,0v16A8,8,0,0,0,410.56,175h11.88a8,8,0,0,0,2.06-15.72Z"/><path class="cls-3" d="M376.72,127.5h16a8,8,0,0,0,0-16h-16A8,8,0,0,0,361,113.56v11.88a8,8,0,0,0,15.72,2.06Z"/><path class="cls-3" d="M464,105.56a8,8,0,0,0-7.72,5.94h-16a8,8,0,0,0,0,16h16A8,8,0,0,0,472,125.44V113.56A8,8,0,0,0,464,105.56Z"/><circle class="cls-4" cx="416.5" cy="119.5" r="23.75"/><path class="cls-5" d="M398.12,149.19l7.24-7.24a8,8,0,1,0-11.31-11.31l-7.24,7.24-.28-.29a8,8,0,0,0-11.32,11.32l11.88,11.88a8,8,0,1,0,11.32-11.32Z"/><path class="cls-5" d="M380.87,103.75a8,8,0,0,0,5.66-2.34l.28-.28,7.24,7.23a8,8,0,1,0,11.31-11.31l-7.24-7.24.29-.28a8,8,0,0,0-11.32-11.31L375.21,90.09a8,8,0,0,0,5.66,13.66Z"/><path class="cls-5" d="M434.87,89.81l-7.23,7.24A8,8,0,1,0,439,108.36l7.24-7.23.28.28a8,8,0,1,0,11.31-11.32l-5.93-5.92h0l-5.92-5.93a8,8,0,0,0-11.32,11.31Z"/><path class="cls-5" d="M446.47,137.59l-.28.29L439,130.64A8,8,0,1,0,427.64,142l7.23,7.24-.28.28a8,8,0,0,0,11.32,11.32l11.87-11.88a8,8,0,0,0-11.31-11.32Z"/><path class="cls-2" d="M168,96A72,72,0,1,0,64.18,160.59L96,264l31.82-103.41A72,72,0,0,0,168,96Z"/><path class="cls-2" d="M335.94,200a72,72,0,1,0-103.81,64.59L263.94,368l31.82-103.41A72,72,0,0,0,335.94,200Z"/><path class="cls-3" d="M255.5,160.72v16a8,8,0,0,0,16,0v-16A8,8,0,0,0,269.44,145H257.56a8,8,0,0,0-2.06,15.72Z"/><path class="cls-3" d="M271.5,240.28v-16a8,8,0,0,0-16,0v16A8,8,0,0,0,257.56,256h11.88a8,8,0,0,0,2.06-15.72Z"/><path class="cls-3" d="M223.72,208.5h16a8,8,0,0,0,0-16h-16A8,8,0,0,0,208,194.56v11.88a8,8,0,0,0,15.72,2.06Z"/><path class="cls-3" d="M311,186.56a8,8,0,0,0-7.72,5.94h-16a8,8,0,0,0,0,16h16A8,8,0,0,0,319,206.44V194.56A8,8,0,0,0,311,186.56Z"/><circle class="cls-4" cx="263.5" cy="200.5" r="23.75"/><path class="cls-5" d="M245.13,230.19l7.23-7.24a8,8,0,0,0-11.31-11.31l-7.24,7.23-.28-.28a8,8,0,1,0-11.31,11.32l11.87,11.87a8,8,0,0,0,11.32-11.31Z"/><path class="cls-5" d="M227.88,184.75a8,8,0,0,0,5.65-2.34l.28-.29,7.24,7.24a8,8,0,0,0,11.31-11.31l-7.23-7.24.28-.28a8,8,0,0,0-11.32-11.32l-11.87,11.88a8,8,0,0,0,5.66,13.66Z"/><path class="cls-5" d="M281.88,170.81l-7.24,7.24A8,8,0,0,0,286,189.36l7.24-7.24.28.29a8,8,0,0,0,11.32-11.32l-5.93-5.93h0l-5.93-5.93a8,8,0,0,0-11.32,11.32Z"/><path class="cls-5" d="M293.47,218.59l-.28.28L286,211.64A8,8,0,1,0,274.64,223l7.24,7.24-.29.28a8,8,0,0,0,11.32,11.31l11.88-11.87a8,8,0,0,0-11.32-11.32Z"/><path class="cls-3" d="M88,56.22v16a8,8,0,0,0,16,0v-16a8,8,0,0,0-2.06-15.72H90.06A8,8,0,0,0,88,56.22Z"/><path class="cls-3" d="M104,135.78v-16a8,8,0,0,0-16,0v16a8,8,0,0,0,2.06,15.72h11.88A8,8,0,0,0,104,135.78Z"/><path class="cls-3" d="M56.22,104h16a8,8,0,0,0,0-16h-16A8,8,0,0,0,40.5,90.06v11.88A8,8,0,0,0,56.22,104Z"/><path class="cls-3" d="M143.5,82.06A8,8,0,0,0,135.78,88h-16a8,8,0,0,0,0,16h16a8,8,0,0,0,15.72-2.06V90.06A8,8,0,0,0,143.5,82.06Z"/><circle class="cls-4" cx="96" cy="96" r="23.75"/><path class="cls-5" d="M77.63,125.69l7.23-7.24a8,8,0,0,0-11.31-11.31l-7.24,7.23-.28-.28a8,8,0,1,0-11.31,11.32l11.87,11.87A8,8,0,0,0,77.91,126Z"/><path class="cls-5" d="M60.37,80.25A8,8,0,0,0,66,77.91l.28-.28,7.24,7.23A8,8,0,0,0,84.86,73.55l-7.23-7.24.28-.28A8,8,0,0,0,66.59,54.72L54.72,66.59a8,8,0,0,0,5.65,13.66Z"/><path class="cls-5" d="M114.37,66.31l-7.23,7.24a8,8,0,1,0,11.31,11.31l7.24-7.23.28.28a8,8,0,0,0,11.31-11.32l-5.92-5.93h0l-5.93-5.92A8,8,0,0,0,114.09,66Z"/><path class="cls-5" d="M126,114.09l-.28.28-7.24-7.23a8,8,0,0,0-11.31,11.31l7.23,7.24-.28.28a8,8,0,1,0,11.32,11.31l11.87-11.87A8,8,0,0,0,126,114.09Z"/></g></svg>