<?xml version="1.0" encoding="UTF-8" standalone="no"?> <svg width="64" height="64" viewBox="0 0 64 64" fill="none" xmlns="http://www.w3.org/2000/svg">
<path d="M62 14V50C62 51.0609 61.5786 52.0783 60.8284 52.8284C60.0783 53.5786 59.0609 54 58 54H6C4.93913 54 3.92172 53.5786 3.17157 52.8284C2.42143 52.0783 2 51.0609 2 50V14H62Z" fill="#FFD422"/>
<path d="M62 12V14H2V12C2 10.9391 2.42143 9.92172 3.17157 9.17157C3.92172 8.42143 4.93913 8 6 8H58C59.0609 8 60.0783 8.42143 60.8284 9.17157C61.5786 9.92172 62 10.9391 62 12Z" fill="#3D9AE2"/>
<path d="M29.44 44.42L26.7 43.2L24 42V39.32C25.0435 38.8281 25.9482 38.0843 26.6325 37.1555C27.3169 36.2268 27.7593 35.1424 27.92 34H29C29.5304 34 30.0391 33.7893 30.4142 33.4142C30.7893 33.0391 31 32.5304 31 32C31 31.4696 30.7893 30.9609 30.4142 30.5858C30.0391 30.2107 29.5304 30 29 30H28V27C28 25.1435 27.2625 23.363 25.9497 22.0503C24.637 20.7375 22.8565 20 21 20C19.1435 20 17.363 20.7375 16.0503 22.0503C14.7375 23.363 14 25.1435 14 27V30H13C12.4696 30 11.9609 30.2107 11.5858 30.5858C11.2107 30.9609 11 31.4696 11 32C11 32.5304 11.2107 33.0391 11.5858 33.4142C11.9609 33.7893 12.4696 34 13 34H14.08C14.2402 35.1426 14.6824 36.2272 15.3668 37.156C16.0512 38.0848 16.9562 38.8286 18 39.32V42L15.3 43.2L12.56 44.42C11.5005 44.8916 10.6003 45.6603 9.9685 46.6328C9.33669 47.6054 9.00028 48.7402 9 49.9V52H33V49.9C32.9997 48.7402 32.6633 47.6054 32.0315 46.6328C31.3997 45.6603 30.4995 44.8916 29.44 44.42Z" fill="#EBBF00"/>
<path d="M31 47.9V50H22L20.18 43.82L21 43L24 44L24.7 41.2L27.44 42.42C28.4995 42.8916 29.3997 43.6602 30.0315 44.6328C30.6633 45.6054 30.9997 46.7402 31 47.9Z" fill="#898890"/>
<path d="M29 30C28.9984 30.5299 28.7872 31.0377 28.4125 31.4125C28.0377 31.7872 27.5299 31.9984 27 32H25V28H27C27.5299 28.0016 28.0377 28.2128 28.4125 28.5875C28.7872 28.9623 28.9984 29.4701 29 30Z" fill="#FFB655"/>
<path d="M26 25V27H25.34C24.672 26.9976 24.0237 26.7734 23.4969 26.3625C22.9702 25.9516 22.5949 25.3774 22.43 24.73L22 23C22 24.0609 21.5786 25.0783 20.8284 25.8284C20.0783 26.5786 19.0609 27 18 27H12V25C12 24.0807 12.1811 23.1705 12.5328 22.3212C12.8846 21.4719 13.4002 20.7003 14.0503 20.0503C14.7003 19.4002 15.4719 18.8846 16.3212 18.5328C17.1705 18.1811 18.0807 18 19 18C19.9193 18 20.8295 18.1811 21.6788 18.5328C22.5281 18.8846 23.2997 19.4002 23.9497 20.0503C24.5998 20.7003 25.1154 21.4719 25.4672 22.3212C25.8189 23.1705 26 24.0807 26 25Z" fill="#57565C"/>
<path d="M24.7 41.2L24 44L21 43L20 41L22 40L24.7 41.2Z" fill="#57565C"/>
<path d="M20.18 43.82L22 50H16L17.82 43.82L19 45L20.18 43.82Z" fill="#C6C5CA"/>
<path d="M20 41L21 43L20.18 43.82L19 45L17.82 43.82L17 43L18 41H20Z" fill="#ACABB1"/>
<path d="M18 41L17 43L14 44L13.3 41.2L16 40L18 41Z" fill="#57565C"/>
<path d="M17.82 43.82L16 50H7V47.9C7.00028 46.7402 7.33669 45.6054 7.9685 44.6328C8.60031 43.6602 9.50046 42.8916 10.56 42.42L13.3 41.2L14 44L17 43L17.82 43.82Z" fill="#898890"/>
<path d="M13 28V32H11C10.4696 32 9.96086 31.7893 9.58579 31.4142C9.21071 31.0391 9 30.5304 9 30C9 29.4696 9.21071 28.9609 9.58579 28.5858C9.96086 28.2107 10.4696 28 11 28H13Z" fill="#FFB655"/>
<path d="M22 37V40L20 41H18L16 40V37H22Z" fill="#FFC477"/>
<path d="M22 37V39.32C21.0633 39.7676 20.0382 40 19 40C17.9618 40 16.9367 39.7676 16 39.32V37H22Z" fill="#FFB655"/>
<path d="M26 27V31C26.004 31.3351 25.9772 31.6698 25.92 32C25.7593 33.1424 25.3168 34.2268 24.6325 35.1555C23.9482 36.0843 23.0435 36.8281 22 37.32C21.0109 37.7921 19.9245 38.0247 18.8288 37.9989C17.7331 37.9732 16.6588 37.6899 15.6929 37.1719C14.727 36.6539 13.8967 35.9158 13.269 35.0173C12.6413 34.1188 12.234 33.0851 12.08 32C12.0228 31.6698 11.996 31.3351 12 31V27H18C19.0609 27 20.0783 26.5786 20.8284 25.8284C21.5786 25.0783 22 24.0609 22 23L22.43 24.73C22.5949 25.3774 22.9702 25.9516 23.4969 26.3625C24.0237 26.7734 24.672 26.9976 25.34 27H26Z" fill="#FFC477"/>
<path d="M17 29H15V31H17V29Z" fill="black"/>
<path d="M23 29H21V31H23V29Z" fill="black"/>
<path d="M58 7H6C5.34339 7 4.69321 7.12933 4.08658 7.3806C3.47995 7.63188 2.92876 8.00017 2.46447 8.46447C1.52678 9.40215 1 10.6739 1 12V50C1 51.3261 1.52678 52.5979 2.46447 53.5355C2.92876 53.9998 3.47995 54.3681 4.08658 54.6194C4.69321 54.8707 5.34339 55 6 55H58C59.3261 55 60.5979 54.4732 61.5355 53.5355C62.4732 52.5979 63 51.3261 63 50V12C63 10.6739 62.4732 9.40215 61.5355 8.46447C60.5979 7.52678 59.3261 7 58 7ZM61 50C60.9976 50.7949 60.6808 51.5566 60.1187 52.1187C59.5566 52.6808 58.7949 52.9976 58 53H6C5.20508 52.9976 4.4434 52.6808 3.8813 52.1187C3.31921 51.5566 3.00237 50.7949 3 50V15H61V50ZM61 13H3V12C3.00237 11.2051 3.31921 10.4434 3.8813 9.8813C4.4434 9.31921 5.20508 9.00237 6 9H58C58.7949 9.00237 59.5566 9.31921 60.1187 9.8813C60.6808 10.4434 60.9976 11.2051 61 12V13Z" fill="black"/>
<path d="M27.85 41.51L23 39.35V37.92C23.9164 37.3863 24.7185 36.677 25.3603 35.8327C26.0021 34.9884 26.4709 34.0258 26.74 33H27C27.7956 33 28.5587 32.6839 29.1213 32.1213C29.6839 31.5587 30 30.7956 30 30C30 29.2044 29.6839 28.4413 29.1213 27.8787C28.5587 27.3161 27.7956 27 27 27V25C27 22.8783 26.1571 20.8434 24.6569 19.3431C23.1566 17.8429 21.1217 17 19 17C16.8783 17 14.8434 17.8429 13.3431 19.3431C11.8429 20.8434 11 22.8783 11 25V27C10.2044 27 9.44129 27.3161 8.87868 27.8787C8.31607 28.4413 8 29.2044 8 30C8 30.7956 8.31607 31.5587 8.87868 32.1213C9.44129 32.6839 10.2044 33 11 33H11.26C11.5291 34.0258 11.9979 34.9884 12.6397 35.8327C13.2815 36.677 14.0836 37.3863 15 37.92V39.35L10.15 41.51C8.91501 42.0605 7.86589 42.9569 7.12943 44.0909C6.39296 45.2249 6.00069 46.5479 6 47.9V50C6 50.2652 6.10536 50.5196 6.29289 50.7071C6.48043 50.8946 6.73478 51 7 51H31C31.2652 51 31.5196 50.8946 31.7071 50.7071C31.8946 50.5196 32 50.2652 32 50V47.9C31.9993 46.5479 31.607 45.2249 30.8706 44.0909C30.1341 42.9569 29.085 42.0605 27.85 41.51ZM27 29C27.2652 29 27.5196 29.1054 27.7071 29.2929C27.8946 29.4804 28 29.7348 28 30C28 30.2652 27.8946 30.5196 27.7071 30.7071C27.5196 30.8946 27.2652 31 27 31V29ZM11 31C10.7348 31 10.4804 30.8946 10.2929 30.7071C10.1054 30.5196 10 30.2652 10 30C10 29.7348 10.1054 29.4804 10.2929 29.2929C10.4804 29.1054 10.7348 29 11 29V31ZM23.53 41.77L23.29 42.71L21.71 42.18L21.34 41.45L22.02 41.11L23.53 41.77ZM13 25C13 23.4087 13.6321 21.8826 14.7574 20.7574C15.8826 19.6321 17.4087 19 19 19C20.5913 19 22.1174 19.6321 23.2426 20.7574C24.3679 21.8826 25 23.4087 25 25V25.97C24.6192 25.9034 24.2657 25.7284 23.9819 25.4658C23.6981 25.2033 23.496 24.8645 23.4 24.49L22.97 22.76C22.9107 22.5236 22.7672 22.3169 22.5663 22.1789C22.3654 22.0409 22.121 21.9809 21.8791 22.0104C21.6371 22.0399 21.4143 22.1567 21.2524 22.339C21.0905 22.5212 21.0008 22.7563 21 23C20.9976 23.7949 20.6808 24.5566 20.1187 25.1187C19.5566 25.6808 18.7949 25.9976 18 26H13V25ZM13 31V28H18C18.7568 27.999 19.5035 27.8266 20.1841 27.4958C20.8647 27.165 21.4616 26.6844 21.93 26.09C22.2575 26.6239 22.706 27.0732 23.2394 27.4015C23.7727 27.7298 24.3759 27.928 25 27.98V31C25 32.5913 24.3679 34.1174 23.2426 35.2426C22.1174 36.3679 20.5913 37 19 37C17.4087 37 15.8826 36.3679 14.7574 35.2426C13.6321 34.1174 13 32.5913 13 31ZM15.98 41.11L16.66 41.45L16.29 42.18L14.71 42.71L14.47 41.77L15.98 41.11ZM15.25 49H8V47.9C7.99988 46.9326 8.28041 45.9859 8.80757 45.1747C9.33474 44.3636 10.0859 43.7228 10.97 43.33L12.62 42.6L13.03 44.24C13.0637 44.3744 13.1246 44.5006 13.2089 44.6106C13.2932 44.7207 13.399 44.8123 13.52 44.88C13.6674 44.9596 13.8325 45.0008 14 45C14.1085 44.9981 14.2161 44.9812 14.32 44.95L16.68 44.16L15.25 49ZM17.34 49L18.3 45.71C18.4857 45.8956 18.7375 45.9999 19 45.9999C19.2625 45.9999 19.5143 45.8956 19.7 45.71L20.66 49H17.34ZM18.22 42.8L18.62 42H19.38L19.78 42.8L19 43.59L18.22 42.8ZM21 39.38L19.76 40H18.24L17 39.38V38.74C18.3108 39.0867 19.6892 39.0867 21 38.74V39.38ZM30 49H22.75L21.32 44.16L23.68 44.95C23.7839 44.9812 23.8915 44.9981 24 45C24.1675 45.0008 24.3326 44.9596 24.48 44.88C24.601 44.8123 24.7068 44.7207 24.7911 44.6106C24.8754 44.5006 24.9362 44.3744 24.97 44.24L25.38 42.6L27.03 43.33C27.9141 43.7228 28.6653 44.3636 29.1924 45.1747C29.7196 45.9859 30.0001 46.9326 30 47.9V49Z" fill="black"/>
<path d="M38 18H34V20H38V18Z" fill="black"/>
<path d="M44 18H42V20H44V18Z" fill="black"/>
<path d="M48 18H46V20H48V18Z" fill="black"/>
<path d="M52 18H50V20H52V18Z" fill="black"/>
<path d="M56 18H54V20H56V18Z" fill="black"/>
<path d="M40 31H34V33H40V31Z" fill="black"/>
<path d="M46 27H42V29H46V27Z" fill="black"/>
<path d="M56 27H48V29H56V27Z" fill="black"/>
<path d="M56 31H42V33H56V31Z" fill="black"/>
<path d="M44 37H42V39H44V37Z" fill="black"/>
<path d="M48 37H46V39H48V37Z" fill="black"/>
<path d="M52 37H50V39H52V37Z" fill="black"/>
<path d="M56 37H54V39H56V37Z" fill="black"/>
<path d="M46 48H42V50H46V48Z" fill="black"/>
<path d="M52 48H48V50H52V48Z" fill="black"/>
<path d="M56 48H54V50H56V48Z" fill="black"/>
</svg>
